<?xml version="1.0" encoding="UTF-8"?>
<mxfile host="app.diagrams.net" agent="Mozilla/5.0 (Macintosh; Intel Mac OS X 10_15_7) AppleWebKit/537.36 (KHTML, like Gecko) Chrome/135.0.0.0 Safari/537.36" version="26.2.15">
  <diagram name="Page-1" id="4nCQY_WiIBvKvkGODEhM">
    <mxGraphModel dx="1396" dy="861" grid="1" gridSize="10" guides="1" tooltips="1" connect="1" arrows="1" fold="1" page="1" pageScale="1" pageWidth="850" pageHeight="1100" math="0" shadow="0">
      <root>
        <mxCell id="0" />
        <mxCell id="1" parent="0" />
        <mxCell id="zDroeXgStFkQvejHrbNX-1" style="edgeStyle=orthogonalEdgeStyle;rounded=0;orthogonalLoop=1;jettySize=auto;html=1;exitX=0.246;exitY=1.017;exitDx=0;exitDy=0;exitPerimeter=0;entryX=0.5;entryY=0;entryDx=0;entryDy=0;" edge="1" parent="1" source="zDroeXgStFkQvejHrbNX-5" target="zDroeXgStFkQvejHrbNX-9">
          <mxGeometry relative="1" as="geometry" />
        </mxCell>
        <mxCell id="zDroeXgStFkQvejHrbNX-2" style="edgeStyle=orthogonalEdgeStyle;rounded=0;orthogonalLoop=1;jettySize=auto;html=1;exitX=0.5;exitY=1;exitDx=0;exitDy=0;exitPerimeter=0;entryX=0.5;entryY=0;entryDx=0;entryDy=0;" edge="1" parent="1" source="zDroeXgStFkQvejHrbNX-5" target="zDroeXgStFkQvejHrbNX-11">
          <mxGeometry relative="1" as="geometry" />
        </mxCell>
        <mxCell id="zDroeXgStFkQvejHrbNX-3" style="edgeStyle=orthogonalEdgeStyle;rounded=0;orthogonalLoop=1;jettySize=auto;html=1;exitX=0.89;exitY=0.89;exitDx=0;exitDy=0;exitPerimeter=0;entryX=0.5;entryY=0;entryDx=0;entryDy=0;" edge="1" parent="1" source="zDroeXgStFkQvejHrbNX-5" target="zDroeXgStFkQvejHrbNX-13">
          <mxGeometry relative="1" as="geometry" />
        </mxCell>
        <mxCell id="zDroeXgStFkQvejHrbNX-4" style="edgeStyle=orthogonalEdgeStyle;rounded=0;orthogonalLoop=1;jettySize=auto;html=1;exitX=0.89;exitY=0.11;exitDx=0;exitDy=0;exitPerimeter=0;entryX=0.25;entryY=0;entryDx=0;entryDy=0;" edge="1" parent="1" source="zDroeXgStFkQvejHrbNX-5" target="zDroeXgStFkQvejHrbNX-41">
          <mxGeometry relative="1" as="geometry">
            <Array as="points">
              <mxPoint x="367" y="379.89" />
              <mxPoint x="630" y="379.89" />
            </Array>
          </mxGeometry>
        </mxCell>
        <mxCell id="zDroeXgStFkQvejHrbNX-5" value="start" style="shape=mxgraph.flowchart.terminator;strokeWidth=2;gradientColor=none;gradientDirection=north;fontStyle=0;html=1;fillColor=light-dark(#FFFFFF,#009900);" vertex="1" parent="1">
          <mxGeometry x="260" y="389.89" width="120" height="30" as="geometry" />
        </mxCell>
        <mxCell id="zDroeXgStFkQvejHrbNX-6" value="note: the words next to the arrows outside the boxes are the&lt;div&gt;buttons that the player clicks to get to the boxes. the boxes&lt;/div&gt;&lt;div&gt;represent the different screens/menus available in the game.&lt;/div&gt;" style="text;fontStyle=0;html=1;strokeColor=none;gradientColor=none;fillColor=none;strokeWidth=2;" vertex="1" parent="1">
          <mxGeometry x="800" y="80" width="330" height="56" as="geometry" />
        </mxCell>
        <mxCell id="zDroeXgStFkQvejHrbNX-7" value="" style="edgeStyle=orthogonalEdgeStyle;rounded=0;orthogonalLoop=1;jettySize=auto;html=1;" edge="1" parent="1" source="zDroeXgStFkQvejHrbNX-9" target="zDroeXgStFkQvejHrbNX-15">
          <mxGeometry relative="1" as="geometry">
            <Array as="points">
              <mxPoint x="180" y="569.89" />
              <mxPoint x="180" y="569.89" />
            </Array>
          </mxGeometry>
        </mxCell>
        <mxCell id="zDroeXgStFkQvejHrbNX-8" value="" style="edgeStyle=orthogonalEdgeStyle;rounded=0;orthogonalLoop=1;jettySize=auto;html=1;" edge="1" parent="1" source="zDroeXgStFkQvejHrbNX-9" target="zDroeXgStFkQvejHrbNX-15">
          <mxGeometry relative="1" as="geometry">
            <Array as="points">
              <mxPoint x="270" y="579.89" />
              <mxPoint x="270" y="579.89" />
            </Array>
          </mxGeometry>
        </mxCell>
        <mxCell id="zDroeXgStFkQvejHrbNX-9" value="singleplayer option menu" style="rounded=0;whiteSpace=wrap;html=1;fillColor=light-dark(#FFFFFF,#006600);" vertex="1" parent="1">
          <mxGeometry x="165" y="459.89" width="120" height="60" as="geometry" />
        </mxCell>
        <mxCell id="zDroeXgStFkQvejHrbNX-10" style="edgeStyle=orthogonalEdgeStyle;rounded=0;orthogonalLoop=1;jettySize=auto;html=1;exitX=0.75;exitY=1;exitDx=0;exitDy=0;entryX=0.5;entryY=0;entryDx=0;entryDy=0;" edge="1" parent="1" source="zDroeXgStFkQvejHrbNX-11" target="zDroeXgStFkQvejHrbNX-47">
          <mxGeometry relative="1" as="geometry">
            <Array as="points">
              <mxPoint x="401" y="586" />
              <mxPoint x="490" y="586" />
              <mxPoint x="490" y="997" />
              <mxPoint x="514" y="997" />
            </Array>
          </mxGeometry>
        </mxCell>
        <mxCell id="zDroeXgStFkQvejHrbNX-11" value="multiplayer option menu/invite players screen" style="rounded=0;whiteSpace=wrap;html=1;fillColor=light-dark(#FFFFFF,#3333FF);shadow=1;" vertex="1" parent="1">
          <mxGeometry x="311" y="459.89" width="120" height="60" as="geometry" />
        </mxCell>
        <mxCell id="zDroeXgStFkQvejHrbNX-12" style="edgeStyle=orthogonalEdgeStyle;rounded=0;orthogonalLoop=1;jettySize=auto;html=1;exitX=0.75;exitY=1;exitDx=0;exitDy=0;entryX=1;entryY=0.75;entryDx=0;entryDy=0;" edge="1" parent="1" source="zDroeXgStFkQvejHrbNX-13" target="zDroeXgStFkQvejHrbNX-21">
          <mxGeometry relative="1" as="geometry" />
        </mxCell>
        <mxCell id="zDroeXgStFkQvejHrbNX-13" value="general option menu" style="rounded=0;whiteSpace=wrap;html=1;fillColor=light-dark(#FFFFFF,#3333FF);" vertex="1" parent="1">
          <mxGeometry x="460" y="459.89" width="120" height="60" as="geometry" />
        </mxCell>
        <mxCell id="zDroeXgStFkQvejHrbNX-14" style="edgeStyle=orthogonalEdgeStyle;rounded=0;orthogonalLoop=1;jettySize=auto;html=1;exitX=1;exitY=0.5;exitDx=0;exitDy=0;entryX=0.5;entryY=0;entryDx=0;entryDy=0;" edge="1" parent="1" source="zDroeXgStFkQvejHrbNX-15" target="zDroeXgStFkQvejHrbNX-45">
          <mxGeometry relative="1" as="geometry">
            <Array as="points">
              <mxPoint x="660" y="650" />
              <mxPoint x="660" y="1006" />
              <mxPoint x="804" y="1006" />
            </Array>
          </mxGeometry>
        </mxCell>
        <mxCell id="zDroeXgStFkQvejHrbNX-15" value="game-specific option screen" style="whiteSpace=wrap;html=1;rounded=0;fillColor=light-dark(#FFFFFF,#006600);shadow=1;" vertex="1" parent="1">
          <mxGeometry x="260" y="619.89" width="120" height="60" as="geometry" />
        </mxCell>
        <mxCell id="zDroeXgStFkQvejHrbNX-16" value="play solo" style="text;html=1;align=center;verticalAlign=middle;resizable=0;points=[];autosize=1;strokeColor=none;fillColor=none;" vertex="1" parent="1">
          <mxGeometry x="110" y="549.89" width="70" height="30" as="geometry" />
        </mxCell>
        <mxCell id="zDroeXgStFkQvejHrbNX-17" value="play vs&lt;div&gt;computer&lt;/div&gt;" style="text;html=1;align=left;verticalAlign=middle;resizable=0;points=[];autosize=1;strokeColor=none;fillColor=none;" vertex="1" parent="1">
          <mxGeometry x="276" y="569.89" width="70" height="40" as="geometry" />
        </mxCell>
        <mxCell id="zDroeXgStFkQvejHrbNX-18" style="edgeStyle=orthogonalEdgeStyle;rounded=0;orthogonalLoop=1;jettySize=auto;html=1;exitX=0.75;exitY=0;exitDx=0;exitDy=0;entryX=1;entryY=0.5;entryDx=0;entryDy=0;entryPerimeter=0;" edge="1" parent="1" source="zDroeXgStFkQvejHrbNX-13" target="zDroeXgStFkQvejHrbNX-5">
          <mxGeometry relative="1" as="geometry" />
        </mxCell>
        <mxCell id="zDroeXgStFkQvejHrbNX-19" style="edgeStyle=orthogonalEdgeStyle;rounded=0;orthogonalLoop=1;jettySize=auto;html=1;exitX=1;exitY=0.25;exitDx=0;exitDy=0;entryX=0.5;entryY=1;entryDx=0;entryDy=0;" edge="1" parent="1" source="zDroeXgStFkQvejHrbNX-21" target="zDroeXgStFkQvejHrbNX-13">
          <mxGeometry relative="1" as="geometry" />
        </mxCell>
        <mxCell id="zDroeXgStFkQvejHrbNX-20" value="" style="edgeStyle=orthogonalEdgeStyle;rounded=0;orthogonalLoop=1;jettySize=auto;html=1;" edge="1" parent="1" source="zDroeXgStFkQvejHrbNX-21" target="zDroeXgStFkQvejHrbNX-27">
          <mxGeometry relative="1" as="geometry" />
        </mxCell>
        <mxCell id="zDroeXgStFkQvejHrbNX-21" value="gameplay" style="whiteSpace=wrap;html=1;rounded=0;fillColor=light-dark(#FFFFFF,#006600);" vertex="1" parent="1">
          <mxGeometry x="260" y="713.89" width="120" height="60" as="geometry" />
        </mxCell>
        <mxCell id="zDroeXgStFkQvejHrbNX-22" value="back to game" style="text;html=1;align=center;verticalAlign=middle;resizable=0;points=[];autosize=1;strokeColor=none;fillColor=none;" vertex="1" parent="1">
          <mxGeometry x="540" y="549.89" width="100" height="30" as="geometry" />
        </mxCell>
        <mxCell id="zDroeXgStFkQvejHrbNX-23" value="singleplayer" style="text;html=1;align=center;verticalAlign=middle;resizable=0;points=[];autosize=1;strokeColor=none;fillColor=none;" vertex="1" parent="1">
          <mxGeometry x="205" y="417.89" width="90" height="30" as="geometry" />
        </mxCell>
        <mxCell id="zDroeXgStFkQvejHrbNX-24" value="multiplayer" style="text;html=1;align=center;verticalAlign=middle;resizable=0;points=[];autosize=1;strokeColor=none;fillColor=none;" vertex="1" parent="1">
          <mxGeometry x="315" y="416.89" width="80" height="30" as="geometry" />
        </mxCell>
        <mxCell id="zDroeXgStFkQvejHrbNX-25" value="options" style="text;html=1;align=center;verticalAlign=middle;resizable=0;points=[];autosize=1;strokeColor=none;fillColor=none;" vertex="1" parent="1">
          <mxGeometry x="410" y="409.89" width="60" height="30" as="geometry" />
        </mxCell>
        <mxCell id="zDroeXgStFkQvejHrbNX-26" value="" style="edgeStyle=orthogonalEdgeStyle;rounded=0;orthogonalLoop=1;jettySize=auto;html=1;" edge="1" parent="1" source="zDroeXgStFkQvejHrbNX-27" target="zDroeXgStFkQvejHrbNX-30">
          <mxGeometry relative="1" as="geometry" />
        </mxCell>
        <mxCell id="zDroeXgStFkQvejHrbNX-27" value="end game screen&lt;div&gt;buddy/commons scene&lt;/div&gt;" style="rounded=0;whiteSpace=wrap;html=1;fillColor=light-dark(#FFFFFF,#3333FF);" vertex="1" parent="1">
          <mxGeometry x="260" y="829.89" width="120" height="60" as="geometry" />
        </mxCell>
        <mxCell id="zDroeXgStFkQvejHrbNX-28" value="finish race" style="text;html=1;align=center;verticalAlign=middle;resizable=0;points=[];autosize=1;strokeColor=none;fillColor=none;" vertex="1" parent="1">
          <mxGeometry x="315" y="789.89" width="80" height="30" as="geometry" />
        </mxCell>
        <mxCell id="zDroeXgStFkQvejHrbNX-29" value="" style="edgeStyle=orthogonalEdgeStyle;rounded=0;orthogonalLoop=1;jettySize=auto;html=1;" edge="1" parent="1" source="zDroeXgStFkQvejHrbNX-30" target="zDroeXgStFkQvejHrbNX-33">
          <mxGeometry relative="1" as="geometry" />
        </mxCell>
        <mxCell id="zDroeXgStFkQvejHrbNX-30" value="race results on scroll&lt;div&gt;play again?&lt;/div&gt;" style="whiteSpace=wrap;html=1;rounded=0;fillColor=light-dark(#FFFFFF,#3333FF);" vertex="1" parent="1">
          <mxGeometry x="290" y="939.89" width="120" height="60" as="geometry" />
        </mxCell>
        <mxCell id="zDroeXgStFkQvejHrbNX-31" value="next" style="text;html=1;align=center;verticalAlign=middle;resizable=0;points=[];autosize=1;strokeColor=none;fillColor=none;" vertex="1" parent="1">
          <mxGeometry x="345" y="909.89" width="50" height="30" as="geometry" />
        </mxCell>
        <mxCell id="zDroeXgStFkQvejHrbNX-32" value="pause game" style="text;html=1;align=center;verticalAlign=middle;resizable=0;points=[];autosize=1;strokeColor=none;fillColor=none;" vertex="1" parent="1">
          <mxGeometry x="380" y="699.89" width="90" height="30" as="geometry" />
        </mxCell>
        <mxCell id="zDroeXgStFkQvejHrbNX-33" value="quit game" style="whiteSpace=wrap;html=1;rounded=0;fillColor=light-dark(#FFFFFF,#006600);" vertex="1" parent="1">
          <mxGeometry x="290" y="1049.8899999999999" width="120" height="60" as="geometry" />
        </mxCell>
        <mxCell id="zDroeXgStFkQvejHrbNX-34" value="no" style="text;html=1;align=center;verticalAlign=middle;resizable=0;points=[];autosize=1;strokeColor=none;fillColor=none;" vertex="1" parent="1">
          <mxGeometry x="345" y="1007.89" width="40" height="30" as="geometry" />
        </mxCell>
        <mxCell id="zDroeXgStFkQvejHrbNX-35" style="edgeStyle=orthogonalEdgeStyle;rounded=0;orthogonalLoop=1;jettySize=auto;html=1;exitX=0;exitY=0.5;exitDx=0;exitDy=0;entryX=0;entryY=0.5;entryDx=0;entryDy=0;entryPerimeter=0;" edge="1" parent="1" source="zDroeXgStFkQvejHrbNX-30" target="zDroeXgStFkQvejHrbNX-5">
          <mxGeometry relative="1" as="geometry">
            <Array as="points">
              <mxPoint x="110" y="969.89" />
              <mxPoint x="110" y="404.89" />
            </Array>
          </mxGeometry>
        </mxCell>
        <mxCell id="zDroeXgStFkQvejHrbNX-36" value="yes" style="edgeLabel;html=1;align=center;verticalAlign=middle;resizable=0;points=[];" vertex="1" connectable="0" parent="zDroeXgStFkQvejHrbNX-35">
          <mxGeometry x="-0.9133" y="-5" relative="1" as="geometry">
            <mxPoint x="9" y="-5" as="offset" />
          </mxGeometry>
        </mxCell>
        <mxCell id="zDroeXgStFkQvejHrbNX-37" value="general option menu options:&lt;div&gt;&lt;ul&gt;&lt;li&gt;music volume&lt;/li&gt;&lt;li&gt;narration toggle&lt;/li&gt;&lt;li&gt;railings toggle&lt;/li&gt;&lt;li&gt;auto alignment toggle&lt;/li&gt;&lt;li&gt;on-screen mini map toggle&lt;/li&gt;&lt;li&gt;controls diagram?&lt;/li&gt;&lt;li&gt;accessibility features?&lt;/li&gt;&lt;/ul&gt;&lt;/div&gt;" style="text;html=1;align=left;verticalAlign=middle;resizable=0;points=[];autosize=1;strokeColor=none;fillColor=none;" vertex="1" parent="1">
          <mxGeometry x="800" y="164" width="200" height="150" as="geometry" />
        </mxCell>
        <mxCell id="zDroeXgStFkQvejHrbNX-38" value="gameplay buttons:&lt;div&gt;&lt;ul&gt;&lt;li&gt;pause game&lt;/li&gt;&lt;li&gt;&quot;use powerup&quot; button&lt;/li&gt;&lt;li&gt;&quot;use teacher ability&quot; button&lt;/li&gt;&lt;/ul&gt;&lt;/div&gt;" style="text;html=1;align=left;verticalAlign=middle;resizable=0;points=[];autosize=1;strokeColor=none;fillColor=none;" vertex="1" parent="1">
          <mxGeometry x="800" y="446" width="210" height="100" as="geometry" />
        </mxCell>
        <mxCell id="zDroeXgStFkQvejHrbNX-39" value="game-specific option menu options:&lt;div&gt;&lt;ul&gt;&lt;li&gt;map selection&lt;/li&gt;&lt;li&gt;character selection&lt;/li&gt;&lt;li&gt;set race count&lt;/li&gt;&lt;/ul&gt;&lt;/div&gt;" style="text;html=1;align=left;verticalAlign=middle;resizable=0;points=[];autosize=1;strokeColor=none;fillColor=none;" vertex="1" parent="1">
          <mxGeometry x="800" y="326" width="210" height="100" as="geometry" />
        </mxCell>
        <mxCell id="zDroeXgStFkQvejHrbNX-40" value="back" style="text;html=1;align=center;verticalAlign=middle;resizable=0;points=[];autosize=1;strokeColor=none;fillColor=none;" vertex="1" parent="1">
          <mxGeometry x="540" y="429.89" width="50" height="30" as="geometry" />
        </mxCell>
        <mxCell id="zDroeXgStFkQvejHrbNX-41" value="store" style="whiteSpace=wrap;html=1;rounded=0;fillColor=light-dark(#FFFFFF,#FF6666);" vertex="1" parent="1">
          <mxGeometry x="600" y="459.89" width="120" height="60" as="geometry" />
        </mxCell>
        <mxCell id="zDroeXgStFkQvejHrbNX-42" style="edgeStyle=orthogonalEdgeStyle;rounded=0;orthogonalLoop=1;jettySize=auto;html=1;exitX=0.5;exitY=0;exitDx=0;exitDy=0;entryX=0.5;entryY=0;entryDx=0;entryDy=0;entryPerimeter=0;" edge="1" parent="1" source="zDroeXgStFkQvejHrbNX-41" target="zDroeXgStFkQvejHrbNX-5">
          <mxGeometry relative="1" as="geometry">
            <Array as="points">
              <mxPoint x="660" y="339.89" />
              <mxPoint x="320" y="339.89" />
            </Array>
          </mxGeometry>
        </mxCell>
        <mxCell id="zDroeXgStFkQvejHrbNX-43" value="store" style="text;html=1;align=center;verticalAlign=middle;resizable=0;points=[];autosize=1;strokeColor=none;fillColor=none;" vertex="1" parent="1">
          <mxGeometry x="370" y="349.89" width="50" height="30" as="geometry" />
        </mxCell>
        <mxCell id="zDroeXgStFkQvejHrbNX-44" value="back" style="text;html=1;align=center;verticalAlign=middle;resizable=0;points=[];autosize=1;strokeColor=none;fillColor=none;" vertex="1" parent="1">
          <mxGeometry x="650" y="416.89" width="50" height="30" as="geometry" />
        </mxCell>
        <mxCell id="zDroeXgStFkQvejHrbNX-45" value="game option menu" style="rhombus;whiteSpace=wrap;html=1;shadow=0;fontFamily=Helvetica;fontSize=12;align=center;strokeWidth=1;spacing=6;spacingTop=-4;fillColor=#60a917;fontColor=#ffffff;strokeColor=#2D7600;" vertex="1" parent="1">
          <mxGeometry x="754" y="1413" width="100" height="80" as="geometry" />
        </mxCell>
        <mxCell id="zDroeXgStFkQvejHrbNX-46" value="Yes" style="rounded=0;html=1;jettySize=auto;orthogonalLoop=1;fontSize=11;endArrow=block;endFill=0;endSize=8;strokeWidth=1;shadow=0;labelBackgroundColor=none;edgeStyle=orthogonalEdgeStyle;" edge="1" parent="1" source="zDroeXgStFkQvejHrbNX-47" target="zDroeXgStFkQvejHrbNX-49">
          <mxGeometry y="20" relative="1" as="geometry">
            <mxPoint as="offset" />
            <Array as="points">
              <mxPoint x="320" y="1273" />
            </Array>
          </mxGeometry>
        </mxCell>
        <mxCell id="zDroeXgStFkQvejHrbNX-47" value="Multiplayer Screen" style="rhombus;whiteSpace=wrap;html=1;shadow=0;fontFamily=Helvetica;fontSize=12;align=center;strokeWidth=1;spacing=6;spacingTop=-4;fillColor=#1ba1e2;fontColor=#ffffff;strokeColor=#006EAF;" vertex="1" parent="1">
          <mxGeometry x="464" y="1233" width="100" height="80" as="geometry" />
        </mxCell>
        <mxCell id="zDroeXgStFkQvejHrbNX-48" value="" style="edgeStyle=orthogonalEdgeStyle;rounded=0;html=1;jettySize=auto;orthogonalLoop=1;fontSize=11;endArrow=block;endFill=0;endSize=8;strokeWidth=1;shadow=0;labelBackgroundColor=none;" edge="1" parent="1" source="zDroeXgStFkQvejHrbNX-49">
          <mxGeometry y="10" relative="1" as="geometry">
            <mxPoint as="offset" />
            <mxPoint x="240" y="1463" as="targetPoint" />
          </mxGeometry>
        </mxCell>
        <mxCell id="zDroeXgStFkQvejHrbNX-49" value="Join" style="rhombus;whiteSpace=wrap;html=1;shadow=0;fontFamily=Helvetica;fontSize=12;align=center;strokeWidth=1;spacing=6;spacingTop=-4;fillColor=light-dark(#FFFFFF,#3333FF);" vertex="1" parent="1">
          <mxGeometry x="270" y="1293" width="100" height="80" as="geometry" />
        </mxCell>
        <mxCell id="zDroeXgStFkQvejHrbNX-50" value="Enter Room Code" style="rounded=1;whiteSpace=wrap;html=1;fontSize=12;glass=0;strokeWidth=1;shadow=0;fillColor=light-dark(#FFFFFF,#3333FF);" vertex="1" parent="1">
          <mxGeometry x="180" y="1463" width="120" height="40" as="geometry" />
        </mxCell>
        <mxCell id="zDroeXgStFkQvejHrbNX-51" value="" style="edgeStyle=orthogonalEdgeStyle;rounded=0;html=1;jettySize=auto;orthogonalLoop=1;fontSize=11;endArrow=block;endFill=0;endSize=8;strokeWidth=1;shadow=0;labelBackgroundColor=none;entryX=0.5;entryY=0;entryDx=0;entryDy=0;exitX=0.5;exitY=1;exitDx=0;exitDy=0;" edge="1" parent="1" source="zDroeXgStFkQvejHrbNX-52" target="zDroeXgStFkQvejHrbNX-54">
          <mxGeometry y="10" relative="1" as="geometry">
            <mxPoint as="offset" />
            <mxPoint x="514" y="1483" as="targetPoint" />
          </mxGeometry>
        </mxCell>
        <mxCell id="zDroeXgStFkQvejHrbNX-52" value="Host" style="rhombus;whiteSpace=wrap;html=1;shadow=0;fontFamily=Helvetica;fontSize=12;align=center;strokeWidth=1;spacing=6;spacingTop=-4;fillColor=light-dark(#FFFFFF,#3333FF);" vertex="1" parent="1">
          <mxGeometry x="464" y="1353" width="100" height="80" as="geometry" />
        </mxCell>
        <mxCell id="zDroeXgStFkQvejHrbNX-53" value="Yes" style="rounded=0;html=1;jettySize=auto;orthogonalLoop=1;fontSize=11;endArrow=block;endFill=0;endSize=8;strokeWidth=1;shadow=0;labelBackgroundColor=none;edgeStyle=orthogonalEdgeStyle;entryX=0.5;entryY=0;entryDx=0;entryDy=0;exitX=0.5;exitY=1;exitDx=0;exitDy=0;" edge="1" parent="1" source="zDroeXgStFkQvejHrbNX-47" target="zDroeXgStFkQvejHrbNX-52">
          <mxGeometry y="20" relative="1" as="geometry">
            <mxPoint as="offset" />
            <mxPoint x="474" y="1283" as="sourcePoint" />
            <mxPoint x="390" y="1363" as="targetPoint" />
          </mxGeometry>
        </mxCell>
        <mxCell id="zDroeXgStFkQvejHrbNX-54" value="Private" style="rounded=1;whiteSpace=wrap;html=1;fontSize=12;glass=0;strokeWidth=1;shadow=0;fillColor=light-dark(#FFFFFF,#3333FF);" vertex="1" parent="1">
          <mxGeometry x="600" y="1483" width="120" height="40" as="geometry" />
        </mxCell>
        <mxCell id="zDroeXgStFkQvejHrbNX-55" value="Public" style="rounded=1;whiteSpace=wrap;html=1;fontSize=12;glass=0;strokeWidth=1;shadow=0;fillColor=light-dark(#FFFFFF,#3333FF);" vertex="1" parent="1">
          <mxGeometry x="455" y="1543" width="120" height="40" as="geometry" />
        </mxCell>
        <mxCell id="zDroeXgStFkQvejHrbNX-56" value="" style="edgeStyle=orthogonalEdgeStyle;rounded=0;html=1;jettySize=auto;orthogonalLoop=1;fontSize=11;endArrow=block;endFill=0;endSize=8;strokeWidth=1;shadow=0;labelBackgroundColor=none;entryX=0.5;entryY=0;entryDx=0;entryDy=0;exitX=0.5;exitY=1;exitDx=0;exitDy=0;" edge="1" parent="1" source="zDroeXgStFkQvejHrbNX-52" target="zDroeXgStFkQvejHrbNX-55">
          <mxGeometry y="10" relative="1" as="geometry">
            <mxPoint as="offset" />
            <mxPoint x="620" y="1493" as="targetPoint" />
            <mxPoint x="524" y="1443" as="sourcePoint" />
          </mxGeometry>
        </mxCell>
        <mxCell id="zDroeXgStFkQvejHrbNX-57" value="*List of Rooms to join*" style="rounded=1;whiteSpace=wrap;html=1;fillColor=light-dark(#FFFFFF,#3333FF);" vertex="1" parent="1">
          <mxGeometry x="339" y="1463" width="120" height="40" as="geometry" />
        </mxCell>
        <mxCell id="zDroeXgStFkQvejHrbNX-58" value="" style="edgeStyle=orthogonalEdgeStyle;rounded=0;html=1;jettySize=auto;orthogonalLoop=1;fontSize=11;endArrow=block;endFill=0;endSize=8;strokeWidth=1;shadow=0;labelBackgroundColor=none;exitX=0.5;exitY=1;exitDx=0;exitDy=0;entryX=0.5;entryY=0;entryDx=0;entryDy=0;" edge="1" parent="1" source="zDroeXgStFkQvejHrbNX-49" target="zDroeXgStFkQvejHrbNX-57">
          <mxGeometry x="-0.0039" y="10" relative="1" as="geometry">
            <mxPoint as="offset" />
            <mxPoint x="330" y="1383" as="sourcePoint" />
            <mxPoint x="220" y="1473" as="targetPoint" />
          </mxGeometry>
        </mxCell>
        <mxCell id="zDroeXgStFkQvejHrbNX-59" value="" style="edgeStyle=orthogonalEdgeStyle;rounded=0;html=1;jettySize=auto;orthogonalLoop=1;fontSize=11;endArrow=block;endFill=0;endSize=8;strokeWidth=1;shadow=0;labelBackgroundColor=none;exitX=0.5;exitY=1;exitDx=0;exitDy=0;entryX=0.5;entryY=0;entryDx=0;entryDy=0;" edge="1" parent="1" source="zDroeXgStFkQvejHrbNX-55" target="zDroeXgStFkQvejHrbNX-65">
          <mxGeometry y="10" relative="1" as="geometry">
            <mxPoint as="offset" />
            <mxPoint x="515" y="1633" as="targetPoint" />
            <mxPoint x="524" y="1443" as="sourcePoint" />
          </mxGeometry>
        </mxCell>
        <mxCell id="zDroeXgStFkQvejHrbNX-60" style="edgeStyle=orthogonalEdgeStyle;rounded=0;orthogonalLoop=1;jettySize=auto;html=1;exitX=0.5;exitY=1;exitDx=0;exitDy=0;entryX=0;entryY=0.75;entryDx=0;entryDy=0;" edge="1" parent="1" source="zDroeXgStFkQvejHrbNX-61" target="zDroeXgStFkQvejHrbNX-15">
          <mxGeometry relative="1" as="geometry">
            <Array as="points">
              <mxPoint x="515" y="1783" />
              <mxPoint x="160" y="1783" />
              <mxPoint x="160" y="665" />
            </Array>
          </mxGeometry>
        </mxCell>
        <mxCell id="zDroeXgStFkQvejHrbNX-61" value="Start Game" style="rounded=1;whiteSpace=wrap;html=1;" vertex="1" parent="1">
          <mxGeometry x="455" y="1723" width="120" height="40" as="geometry" />
        </mxCell>
        <mxCell id="zDroeXgStFkQvejHrbNX-62" value="" style="edgeStyle=orthogonalEdgeStyle;rounded=0;html=1;jettySize=auto;orthogonalLoop=1;fontSize=11;endArrow=block;endFill=0;endSize=8;strokeWidth=1;shadow=0;labelBackgroundColor=none;exitX=0.5;exitY=1;exitDx=0;exitDy=0;" edge="1" parent="1" source="zDroeXgStFkQvejHrbNX-54" target="zDroeXgStFkQvejHrbNX-63">
          <mxGeometry y="10" relative="1" as="geometry">
            <mxPoint as="offset" />
            <mxPoint x="720" y="1603" as="targetPoint" />
            <mxPoint x="720" y="1553" as="sourcePoint" />
          </mxGeometry>
        </mxCell>
        <mxCell id="zDroeXgStFkQvejHrbNX-63" value="Create Room Code" style="rounded=1;whiteSpace=wrap;html=1;fontSize=12;glass=0;strokeWidth=1;shadow=0;fillColor=light-dark(#FFFFFF,#3333FF);" vertex="1" parent="1">
          <mxGeometry x="600" y="1573" width="120" height="40" as="geometry" />
        </mxCell>
        <mxCell id="zDroeXgStFkQvejHrbNX-64" value="" style="edgeStyle=orthogonalEdgeStyle;rounded=0;html=1;jettySize=auto;orthogonalLoop=1;fontSize=11;endArrow=block;endFill=0;endSize=8;strokeWidth=1;shadow=0;labelBackgroundColor=none;exitX=0.5;exitY=1;exitDx=0;exitDy=0;entryX=1;entryY=0.5;entryDx=0;entryDy=0;" edge="1" parent="1" source="zDroeXgStFkQvejHrbNX-63" target="zDroeXgStFkQvejHrbNX-65">
          <mxGeometry y="10" relative="1" as="geometry">
            <mxPoint as="offset" />
            <mxPoint x="659.5799999999999" y="1673" as="targetPoint" />
            <mxPoint x="659.5799999999999" y="1623" as="sourcePoint" />
          </mxGeometry>
        </mxCell>
        <mxCell id="zDroeXgStFkQvejHrbNX-65" value="List of players in room" style="rounded=1;whiteSpace=wrap;html=1;fontSize=12;glass=0;strokeWidth=1;shadow=0;fillColor=light-dark(#FFFFFF,#3333FF);" vertex="1" parent="1">
          <mxGeometry x="455" y="1633" width="120" height="40" as="geometry" />
        </mxCell>
        <mxCell id="zDroeXgStFkQvejHrbNX-66" value="" style="edgeStyle=orthogonalEdgeStyle;rounded=0;html=1;jettySize=auto;orthogonalLoop=1;fontSize=11;endArrow=block;endFill=0;endSize=8;strokeWidth=1;shadow=0;labelBackgroundColor=none;entryX=0.5;entryY=0;entryDx=0;entryDy=0;exitX=0.5;exitY=1;exitDx=0;exitDy=0;" edge="1" parent="1" source="zDroeXgStFkQvejHrbNX-65" target="zDroeXgStFkQvejHrbNX-61">
          <mxGeometry y="10" relative="1" as="geometry">
            <mxPoint as="offset" />
            <mxPoint x="400.5" y="1703" as="targetPoint" />
            <mxPoint x="397.5" y="1683" as="sourcePoint" />
          </mxGeometry>
        </mxCell>
        <mxCell id="zDroeXgStFkQvejHrbNX-67" value="" style="rounded=0;html=1;jettySize=auto;orthogonalLoop=1;fontSize=11;endArrow=block;endFill=0;endSize=8;strokeWidth=1;shadow=0;labelBackgroundColor=none;edgeStyle=orthogonalEdgeStyle;exitX=1;exitY=0.5;exitDx=0;exitDy=0;" edge="1" parent="1" source="zDroeXgStFkQvejHrbNX-47">
          <mxGeometry relative="1" as="geometry">
            <mxPoint x="660" y="1283" as="sourcePoint" />
            <mxPoint x="650" y="1303" as="targetPoint" />
            <Array as="points">
              <mxPoint x="650" y="1273" />
            </Array>
          </mxGeometry>
        </mxCell>
        <mxCell id="zDroeXgStFkQvejHrbNX-68" value="Back" style="rounded=1;whiteSpace=wrap;html=1;fillColor=light-dark(#FFFFFF,#3333FF);" vertex="1" parent="1">
          <mxGeometry x="590" y="1303" width="120" height="30" as="geometry" />
        </mxCell>
        <mxCell id="zDroeXgStFkQvejHrbNX-69" value="Character Selection" style="shape=table;startSize=30;container=1;collapsible=0;childLayout=tableLayout;fixedRows=1;rowLines=0;fontStyle=0;strokeColor=default;fontSize=16;" vertex="1" parent="1">
          <mxGeometry x="934" y="1453" width="180" height="120" as="geometry" />
        </mxCell>
        <mxCell id="zDroeXgStFkQvejHrbNX-70" value="" style="shape=tableRow;horizontal=0;startSize=0;swimlaneHead=0;swimlaneBody=0;top=0;left=0;bottom=0;right=0;collapsible=0;dropTarget=0;fillColor=none;points=[[0,0.5],[1,0.5]];portConstraint=eastwest;strokeColor=inherit;fontSize=16;" vertex="1" parent="zDroeXgStFkQvejHrbNX-69">
          <mxGeometry y="30" width="180" height="30" as="geometry" />
        </mxCell>
        <mxCell id="zDroeXgStFkQvejHrbNX-71" value="1" style="shape=partialRectangle;html=1;whiteSpace=wrap;connectable=0;fillColor=none;top=0;left=0;bottom=0;right=0;overflow=hidden;pointerEvents=1;strokeColor=inherit;fontSize=16;" vertex="1" parent="zDroeXgStFkQvejHrbNX-70">
          <mxGeometry width="40" height="30" as="geometry">
            <mxRectangle width="40" height="30" as="alternateBounds" />
          </mxGeometry>
        </mxCell>
        <mxCell id="zDroeXgStFkQvejHrbNX-72" value="Nealis" style="shape=partialRectangle;html=1;whiteSpace=wrap;connectable=0;fillColor=none;top=0;left=0;bottom=0;right=0;align=left;spacingLeft=6;overflow=hidden;strokeColor=inherit;fontSize=16;" vertex="1" parent="zDroeXgStFkQvejHrbNX-70">
          <mxGeometry x="40" width="140" height="30" as="geometry">
            <mxRectangle width="140" height="30" as="alternateBounds" />
          </mxGeometry>
        </mxCell>
        <mxCell id="zDroeXgStFkQvejHrbNX-73" value="" style="shape=tableRow;horizontal=0;startSize=0;swimlaneHead=0;swimlaneBody=0;top=0;left=0;bottom=0;right=0;collapsible=0;dropTarget=0;fillColor=none;points=[[0,0.5],[1,0.5]];portConstraint=eastwest;strokeColor=inherit;fontSize=16;" vertex="1" parent="zDroeXgStFkQvejHrbNX-69">
          <mxGeometry y="60" width="180" height="30" as="geometry" />
        </mxCell>
        <mxCell id="zDroeXgStFkQvejHrbNX-74" value="2" style="shape=partialRectangle;html=1;whiteSpace=wrap;connectable=0;fillColor=none;top=0;left=0;bottom=0;right=0;overflow=hidden;strokeColor=inherit;fontSize=16;" vertex="1" parent="zDroeXgStFkQvejHrbNX-73">
          <mxGeometry width="40" height="30" as="geometry">
            <mxRectangle width="40" height="30" as="alternateBounds" />
          </mxGeometry>
        </mxCell>
        <mxCell id="zDroeXgStFkQvejHrbNX-75" value="Theiss" style="shape=partialRectangle;html=1;whiteSpace=wrap;connectable=0;fillColor=none;top=0;left=0;bottom=0;right=0;align=left;spacingLeft=6;overflow=hidden;strokeColor=inherit;fontSize=16;" vertex="1" parent="zDroeXgStFkQvejHrbNX-73">
          <mxGeometry x="40" width="140" height="30" as="geometry">
            <mxRectangle width="140" height="30" as="alternateBounds" />
          </mxGeometry>
        </mxCell>
        <mxCell id="zDroeXgStFkQvejHrbNX-76" value="" style="shape=tableRow;horizontal=0;startSize=0;swimlaneHead=0;swimlaneBody=0;top=0;left=0;bottom=0;right=0;collapsible=0;dropTarget=0;fillColor=none;points=[[0,0.5],[1,0.5]];portConstraint=eastwest;strokeColor=inherit;fontSize=16;" vertex="1" parent="zDroeXgStFkQvejHrbNX-69">
          <mxGeometry y="90" width="180" height="30" as="geometry" />
        </mxCell>
        <mxCell id="zDroeXgStFkQvejHrbNX-77" value="3" style="shape=partialRectangle;html=1;whiteSpace=wrap;connectable=0;fillColor=none;top=0;left=0;bottom=0;right=0;overflow=hidden;strokeColor=inherit;fontSize=16;" vertex="1" parent="zDroeXgStFkQvejHrbNX-76">
          <mxGeometry width="40" height="30" as="geometry">
            <mxRectangle width="40" height="30" as="alternateBounds" />
          </mxGeometry>
        </mxCell>
        <mxCell id="zDroeXgStFkQvejHrbNX-78" value="Ur Mom" style="shape=partialRectangle;html=1;whiteSpace=wrap;connectable=0;fillColor=none;top=0;left=0;bottom=0;right=0;align=left;spacingLeft=6;overflow=hidden;strokeColor=inherit;fontSize=16;" vertex="1" parent="zDroeXgStFkQvejHrbNX-76">
          <mxGeometry x="40" width="140" height="30" as="geometry">
            <mxRectangle width="140" height="30" as="alternateBounds" />
          </mxGeometry>
        </mxCell>
        <mxCell id="zDroeXgStFkQvejHrbNX-79" value="" style="edgeStyle=elbowEdgeStyle;elbow=horizontal;endArrow=classic;html=1;curved=0;rounded=0;endSize=8;startSize=8;exitX=1;exitY=0.5;exitDx=0;exitDy=0;entryX=0.5;entryY=0;entryDx=0;entryDy=0;" edge="1" parent="1" source="zDroeXgStFkQvejHrbNX-45" target="zDroeXgStFkQvejHrbNX-69">
          <mxGeometry width="50" height="50" relative="1" as="geometry">
            <mxPoint x="1064" y="1423" as="sourcePoint" />
            <mxPoint x="1114" y="1373" as="targetPoint" />
            <Array as="points">
              <mxPoint x="924" y="1393" />
            </Array>
          </mxGeometry>
        </mxCell>
        <mxCell id="zDroeXgStFkQvejHrbNX-80" value="" style="edgeStyle=segmentEdgeStyle;endArrow=classic;html=1;curved=0;rounded=0;endSize=8;startSize=8;exitX=0.502;exitY=1.018;exitDx=0;exitDy=0;exitPerimeter=0;" edge="1" parent="1" source="zDroeXgStFkQvejHrbNX-76">
          <mxGeometry width="50" height="50" relative="1" as="geometry">
            <mxPoint x="1064" y="1633" as="sourcePoint" />
            <mxPoint x="1024" y="1653" as="targetPoint" />
          </mxGeometry>
        </mxCell>
        <mxCell id="zDroeXgStFkQvejHrbNX-81" value="Click" style="edgeLabel;html=1;align=center;verticalAlign=middle;resizable=0;points=[];" vertex="1" connectable="0" parent="zDroeXgStFkQvejHrbNX-80">
          <mxGeometry x="-0.0845" y="-1" relative="1" as="geometry">
            <mxPoint as="offset" />
          </mxGeometry>
        </mxCell>
        <mxCell id="zDroeXgStFkQvejHrbNX-82" value="" style="edgeStyle=segmentEdgeStyle;endArrow=classic;html=1;curved=0;rounded=0;endSize=8;startSize=8;entryX=0;entryY=0.5;entryDx=0;entryDy=0;" edge="1" parent="1" target="zDroeXgStFkQvejHrbNX-86">
          <mxGeometry width="50" height="50" relative="1" as="geometry">
            <mxPoint x="1114" y="1493" as="sourcePoint" />
            <mxPoint x="1194" y="1493" as="targetPoint" />
            <Array as="points">
              <mxPoint x="1174" y="1493" />
              <mxPoint x="1174" y="1523" />
            </Array>
          </mxGeometry>
        </mxCell>
        <mxCell id="zDroeXgStFkQvejHrbNX-83" value="" style="edgeStyle=segmentEdgeStyle;endArrow=classic;html=1;curved=0;rounded=0;endSize=8;startSize=8;entryX=0;entryY=0.5;entryDx=0;entryDy=0;" edge="1" parent="1" target="zDroeXgStFkQvejHrbNX-86">
          <mxGeometry width="50" height="50" relative="1" as="geometry">
            <mxPoint x="1114" y="1523" as="sourcePoint" />
            <mxPoint x="1194" y="1523" as="targetPoint" />
            <Array as="points" />
          </mxGeometry>
        </mxCell>
        <mxCell id="zDroeXgStFkQvejHrbNX-84" value="Hover" style="edgeLabel;html=1;align=center;verticalAlign=middle;resizable=0;points=[];" vertex="1" connectable="0" parent="zDroeXgStFkQvejHrbNX-83">
          <mxGeometry x="-0.3879" relative="1" as="geometry">
            <mxPoint as="offset" />
          </mxGeometry>
        </mxCell>
        <mxCell id="zDroeXgStFkQvejHrbNX-85" value="" style="edgeStyle=segmentEdgeStyle;endArrow=classic;html=1;curved=0;rounded=0;endSize=8;startSize=8;entryX=0;entryY=0.5;entryDx=0;entryDy=0;" edge="1" parent="1" target="zDroeXgStFkQvejHrbNX-86">
          <mxGeometry width="50" height="50" relative="1" as="geometry">
            <mxPoint x="1114" y="1553" as="sourcePoint" />
            <mxPoint x="1194" y="1553" as="targetPoint" />
            <Array as="points">
              <mxPoint x="1174" y="1553" />
              <mxPoint x="1174" y="1523" />
            </Array>
          </mxGeometry>
        </mxCell>
        <mxCell id="zDroeXgStFkQvejHrbNX-86" value="Unique Description for Character/Kart/Abilities" style="rounded=1;whiteSpace=wrap;html=1;fillColor=#1ba1e2;fontColor=#ffffff;strokeColor=#006EAF;" vertex="1" parent="1">
          <mxGeometry x="1204" y="1493" width="120" height="60" as="geometry" />
        </mxCell>
        <mxCell id="zDroeXgStFkQvejHrbNX-87" value="Select/Confirm?" style="rounded=1;whiteSpace=wrap;html=1;" vertex="1" parent="1">
          <mxGeometry x="964" y="1653" width="120" height="30" as="geometry" />
        </mxCell>
        <mxCell id="zDroeXgStFkQvejHrbNX-88" value="" style="edgeStyle=segmentEdgeStyle;endArrow=classic;html=1;curved=0;rounded=0;endSize=8;startSize=8;exitX=0.5;exitY=1;exitDx=0;exitDy=0;" edge="1" parent="1" source="zDroeXgStFkQvejHrbNX-87">
          <mxGeometry width="50" height="50" relative="1" as="geometry">
            <mxPoint x="1024" y="1753" as="sourcePoint" />
            <mxPoint x="1024" y="1723" as="targetPoint" />
          </mxGeometry>
        </mxCell>
        <mxCell id="zDroeXgStFkQvejHrbNX-89" value="Assigns &quot;character&quot; variable/creates character" style="rounded=1;whiteSpace=wrap;html=1;fillColor=light-dark(#D80073,#009900);fontColor=#ffffff;strokeColor=#A50040;" vertex="1" parent="1">
          <mxGeometry x="964" y="1723" width="120" height="40" as="geometry" />
        </mxCell>
        <mxCell id="zDroeXgStFkQvejHrbNX-90" value="" style="edgeStyle=segmentEdgeStyle;endArrow=classic;html=1;curved=0;rounded=0;endSize=8;startSize=8;exitX=0.5;exitY=1;exitDx=0;exitDy=0;" edge="1" parent="1" source="zDroeXgStFkQvejHrbNX-89">
          <mxGeometry width="50" height="50" relative="1" as="geometry">
            <mxPoint x="1114" y="1803" as="sourcePoint" />
            <mxPoint x="1164" y="1783" as="targetPoint" />
            <Array as="points">
              <mxPoint x="1024" y="1783" />
              <mxPoint x="1164" y="1783" />
            </Array>
          </mxGeometry>
        </mxCell>
        <mxCell id="zDroeXgStFkQvejHrbNX-91" value="Kart Selection" style="shape=table;startSize=30;container=1;collapsible=0;childLayout=tableLayout;fixedRows=1;rowLines=0;fontStyle=0;strokeColor=default;fontSize=16;" vertex="1" parent="1">
          <mxGeometry x="1160" y="1733" width="120" height="110" as="geometry" />
        </mxCell>
        <mxCell id="zDroeXgStFkQvejHrbNX-92" value="" style="shape=tableRow;horizontal=0;startSize=0;swimlaneHead=0;swimlaneBody=0;top=0;left=0;bottom=0;right=0;collapsible=0;dropTarget=0;fillColor=none;points=[[0,0.5],[1,0.5]];portConstraint=eastwest;strokeColor=inherit;fontSize=16;" vertex="1" parent="zDroeXgStFkQvejHrbNX-91">
          <mxGeometry y="30" width="120" height="20" as="geometry" />
        </mxCell>
        <mxCell id="zDroeXgStFkQvejHrbNX-93" value="1" style="shape=partialRectangle;html=1;whiteSpace=wrap;connectable=0;fillColor=none;top=0;left=0;bottom=0;right=0;overflow=hidden;pointerEvents=1;strokeColor=inherit;fontSize=16;" vertex="1" parent="zDroeXgStFkQvejHrbNX-92">
          <mxGeometry width="27" height="20" as="geometry">
            <mxRectangle width="27" height="20" as="alternateBounds" />
          </mxGeometry>
        </mxCell>
        <mxCell id="zDroeXgStFkQvejHrbNX-94" value="Value 1" style="shape=partialRectangle;html=1;whiteSpace=wrap;connectable=0;fillColor=none;top=0;left=0;bottom=0;right=0;align=left;spacingLeft=6;overflow=hidden;strokeColor=inherit;fontSize=16;" vertex="1" parent="zDroeXgStFkQvejHrbNX-92">
          <mxGeometry x="27" width="93" height="20" as="geometry">
            <mxRectangle width="93" height="20" as="alternateBounds" />
          </mxGeometry>
        </mxCell>
        <mxCell id="zDroeXgStFkQvejHrbNX-95" value="" style="shape=tableRow;horizontal=0;startSize=0;swimlaneHead=0;swimlaneBody=0;top=0;left=0;bottom=0;right=0;collapsible=0;dropTarget=0;fillColor=none;points=[[0,0.5],[1,0.5]];portConstraint=eastwest;strokeColor=inherit;fontSize=16;" vertex="1" parent="zDroeXgStFkQvejHrbNX-91">
          <mxGeometry y="50" width="120" height="30" as="geometry" />
        </mxCell>
        <mxCell id="zDroeXgStFkQvejHrbNX-96" value="2" style="shape=partialRectangle;html=1;whiteSpace=wrap;connectable=0;fillColor=none;top=0;left=0;bottom=0;right=0;overflow=hidden;strokeColor=inherit;fontSize=16;" vertex="1" parent="zDroeXgStFkQvejHrbNX-95">
          <mxGeometry width="27" height="30" as="geometry">
            <mxRectangle width="27" height="30" as="alternateBounds" />
          </mxGeometry>
        </mxCell>
        <mxCell id="zDroeXgStFkQvejHrbNX-97" value="Value 2" style="shape=partialRectangle;html=1;whiteSpace=wrap;connectable=0;fillColor=none;top=0;left=0;bottom=0;right=0;align=left;spacingLeft=6;overflow=hidden;strokeColor=inherit;fontSize=16;" vertex="1" parent="zDroeXgStFkQvejHrbNX-95">
          <mxGeometry x="27" width="93" height="30" as="geometry">
            <mxRectangle width="93" height="30" as="alternateBounds" />
          </mxGeometry>
        </mxCell>
        <mxCell id="zDroeXgStFkQvejHrbNX-98" value="" style="shape=tableRow;horizontal=0;startSize=0;swimlaneHead=0;swimlaneBody=0;top=0;left=0;bottom=0;right=0;collapsible=0;dropTarget=0;fillColor=none;points=[[0,0.5],[1,0.5]];portConstraint=eastwest;strokeColor=inherit;fontSize=16;" vertex="1" parent="zDroeXgStFkQvejHrbNX-91">
          <mxGeometry y="80" width="120" height="30" as="geometry" />
        </mxCell>
        <mxCell id="zDroeXgStFkQvejHrbNX-99" value="3" style="shape=partialRectangle;html=1;whiteSpace=wrap;connectable=0;fillColor=none;top=0;left=0;bottom=0;right=0;overflow=hidden;strokeColor=inherit;fontSize=16;" vertex="1" parent="zDroeXgStFkQvejHrbNX-98">
          <mxGeometry width="27" height="30" as="geometry">
            <mxRectangle width="27" height="30" as="alternateBounds" />
          </mxGeometry>
        </mxCell>
        <mxCell id="zDroeXgStFkQvejHrbNX-100" value="Value 3" style="shape=partialRectangle;html=1;whiteSpace=wrap;connectable=0;fillColor=none;top=0;left=0;bottom=0;right=0;align=left;spacingLeft=6;overflow=hidden;strokeColor=inherit;fontSize=16;" vertex="1" parent="zDroeXgStFkQvejHrbNX-98">
          <mxGeometry x="27" width="93" height="30" as="geometry">
            <mxRectangle width="93" height="30" as="alternateBounds" />
          </mxGeometry>
        </mxCell>
        <mxCell id="zDroeXgStFkQvejHrbNX-101" value="Key" style="shape=table;startSize=30;container=1;collapsible=0;childLayout=tableLayout;fixedRows=1;rowLines=0;fontStyle=0;strokeColor=default;fontSize=16;" vertex="1" parent="1">
          <mxGeometry x="1204" y="120" width="180" height="120" as="geometry" />
        </mxCell>
        <mxCell id="zDroeXgStFkQvejHrbNX-102" value="" style="shape=tableRow;horizontal=0;startSize=0;swimlaneHead=0;swimlaneBody=0;top=0;left=0;bottom=0;right=0;collapsible=0;dropTarget=0;fillColor=none;points=[[0,0.5],[1,0.5]];portConstraint=eastwest;strokeColor=inherit;fontSize=16;" vertex="1" parent="zDroeXgStFkQvejHrbNX-101">
          <mxGeometry y="30" width="180" height="30" as="geometry" />
        </mxCell>
        <mxCell id="zDroeXgStFkQvejHrbNX-103" value="P0" style="shape=partialRectangle;html=1;whiteSpace=wrap;connectable=0;fillColor=none;top=0;left=0;bottom=0;right=0;overflow=hidden;pointerEvents=1;strokeColor=inherit;fontSize=16;" vertex="1" parent="zDroeXgStFkQvejHrbNX-102">
          <mxGeometry width="40" height="30" as="geometry">
            <mxRectangle width="40" height="30" as="alternateBounds" />
          </mxGeometry>
        </mxCell>
        <mxCell id="zDroeXgStFkQvejHrbNX-104" value="Green" style="shape=partialRectangle;html=1;whiteSpace=wrap;connectable=0;fillColor=none;top=0;left=0;bottom=0;right=0;align=left;spacingLeft=6;overflow=hidden;strokeColor=inherit;fontSize=16;" vertex="1" parent="zDroeXgStFkQvejHrbNX-102">
          <mxGeometry x="40" width="140" height="30" as="geometry">
            <mxRectangle width="140" height="30" as="alternateBounds" />
          </mxGeometry>
        </mxCell>
        <mxCell id="zDroeXgStFkQvejHrbNX-105" value="" style="shape=tableRow;horizontal=0;startSize=0;swimlaneHead=0;swimlaneBody=0;top=0;left=0;bottom=0;right=0;collapsible=0;dropTarget=0;fillColor=none;points=[[0,0.5],[1,0.5]];portConstraint=eastwest;strokeColor=inherit;fontSize=16;" vertex="1" parent="zDroeXgStFkQvejHrbNX-101">
          <mxGeometry y="60" width="180" height="30" as="geometry" />
        </mxCell>
        <mxCell id="zDroeXgStFkQvejHrbNX-106" value="P1" style="shape=partialRectangle;html=1;whiteSpace=wrap;connectable=0;fillColor=none;top=0;left=0;bottom=0;right=0;overflow=hidden;strokeColor=inherit;fontSize=16;" vertex="1" parent="zDroeXgStFkQvejHrbNX-105">
          <mxGeometry width="40" height="30" as="geometry">
            <mxRectangle width="40" height="30" as="alternateBounds" />
          </mxGeometry>
        </mxCell>
        <mxCell id="zDroeXgStFkQvejHrbNX-107" value="Blue" style="shape=partialRectangle;html=1;whiteSpace=wrap;connectable=0;fillColor=none;top=0;left=0;bottom=0;right=0;align=left;spacingLeft=6;overflow=hidden;strokeColor=inherit;fontSize=16;" vertex="1" parent="zDroeXgStFkQvejHrbNX-105">
          <mxGeometry x="40" width="140" height="30" as="geometry">
            <mxRectangle width="140" height="30" as="alternateBounds" />
          </mxGeometry>
        </mxCell>
        <mxCell id="zDroeXgStFkQvejHrbNX-108" value="" style="shape=tableRow;horizontal=0;startSize=0;swimlaneHead=0;swimlaneBody=0;top=0;left=0;bottom=0;right=0;collapsible=0;dropTarget=0;fillColor=none;points=[[0,0.5],[1,0.5]];portConstraint=eastwest;strokeColor=inherit;fontSize=16;" vertex="1" parent="zDroeXgStFkQvejHrbNX-101">
          <mxGeometry y="90" width="180" height="30" as="geometry" />
        </mxCell>
        <mxCell id="zDroeXgStFkQvejHrbNX-109" value="P2" style="shape=partialRectangle;html=1;whiteSpace=wrap;connectable=0;fillColor=none;top=0;left=0;bottom=0;right=0;overflow=hidden;strokeColor=inherit;fontSize=16;" vertex="1" parent="zDroeXgStFkQvejHrbNX-108">
          <mxGeometry width="40" height="30" as="geometry">
            <mxRectangle width="40" height="30" as="alternateBounds" />
          </mxGeometry>
        </mxCell>
        <mxCell id="zDroeXgStFkQvejHrbNX-110" value="Red" style="shape=partialRectangle;html=1;whiteSpace=wrap;connectable=0;fillColor=none;top=0;left=0;bottom=0;right=0;align=left;spacingLeft=6;overflow=hidden;strokeColor=inherit;fontSize=16;" vertex="1" parent="zDroeXgStFkQvejHrbNX-108">
          <mxGeometry x="40" width="140" height="30" as="geometry">
            <mxRectangle width="140" height="30" as="alternateBounds" />
          </mxGeometry>
        </mxCell>
        <mxCell id="zDroeXgStFkQvejHrbNX-111" value="" style="edgeStyle=segmentEdgeStyle;endArrow=classic;html=1;curved=0;rounded=0;endSize=8;startSize=8;exitX=1;exitY=0.5;exitDx=0;exitDy=0;entryX=0.5;entryY=1;entryDx=0;entryDy=0;" edge="1" parent="1" source="zDroeXgStFkQvejHrbNX-92" target="zDroeXgStFkQvejHrbNX-86">
          <mxGeometry width="50" height="50" relative="1" as="geometry">
            <mxPoint x="1214" y="1673" as="sourcePoint" />
            <mxPoint x="1264" y="1623" as="targetPoint" />
            <Array as="points">
              <mxPoint x="1304" y="1773" />
              <mxPoint x="1304" y="1613" />
              <mxPoint x="1264" y="1613" />
            </Array>
          </mxGeometry>
        </mxCell>
        <mxCell id="zDroeXgStFkQvejHrbNX-112" value="Hover" style="edgeLabel;html=1;align=center;verticalAlign=middle;resizable=0;points=[];" vertex="1" connectable="0" parent="zDroeXgStFkQvejHrbNX-111">
          <mxGeometry x="-0.1727" y="1" relative="1" as="geometry">
            <mxPoint as="offset" />
          </mxGeometry>
        </mxCell>
        <mxCell id="zDroeXgStFkQvejHrbNX-113" value="" style="edgeStyle=segmentEdgeStyle;endArrow=classic;html=1;curved=0;rounded=0;endSize=8;startSize=8;exitX=1;exitY=0.5;exitDx=0;exitDy=0;entryX=0.578;entryY=0.994;entryDx=0;entryDy=0;entryPerimeter=0;" edge="1" parent="1" source="zDroeXgStFkQvejHrbNX-95" target="zDroeXgStFkQvejHrbNX-86">
          <mxGeometry width="50" height="50" relative="1" as="geometry">
            <mxPoint x="1294" y="1783" as="sourcePoint" />
            <mxPoint x="1274" y="1563" as="targetPoint" />
            <Array as="points">
              <mxPoint x="1284" y="1783" />
              <mxPoint x="1304" y="1783" />
              <mxPoint x="1304" y="1623" />
              <mxPoint x="1273" y="1623" />
            </Array>
          </mxGeometry>
        </mxCell>
        <mxCell id="zDroeXgStFkQvejHrbNX-114" value="" style="edgeStyle=segmentEdgeStyle;endArrow=classic;html=1;curved=0;rounded=0;endSize=8;startSize=8;exitX=1;exitY=0.5;exitDx=0;exitDy=0;entryX=0.646;entryY=0.994;entryDx=0;entryDy=0;entryPerimeter=0;" edge="1" parent="1" source="zDroeXgStFkQvejHrbNX-98" target="zDroeXgStFkQvejHrbNX-86">
          <mxGeometry width="50" height="50" relative="1" as="geometry">
            <mxPoint x="1294" y="1808" as="sourcePoint" />
            <mxPoint x="1283" y="1563" as="targetPoint" />
            <Array as="points">
              <mxPoint x="1294" y="1828" />
              <mxPoint x="1294" y="1793" />
              <mxPoint x="1304" y="1793" />
              <mxPoint x="1304" y="1633" />
              <mxPoint x="1283" y="1633" />
              <mxPoint x="1283" y="1563" />
              <mxPoint x="1282" y="1563" />
            </Array>
          </mxGeometry>
        </mxCell>
        <mxCell id="zDroeXgStFkQvejHrbNX-115" value="Select/Confirm?" style="rounded=1;whiteSpace=wrap;html=1;" vertex="1" parent="1">
          <mxGeometry x="1164" y="1873" width="120" height="30" as="geometry" />
        </mxCell>
        <mxCell id="zDroeXgStFkQvejHrbNX-116" value="" style="edgeStyle=segmentEdgeStyle;endArrow=classic;html=1;curved=0;rounded=0;endSize=8;startSize=8;exitX=0.5;exitY=1;exitDx=0;exitDy=0;" edge="1" parent="1" source="zDroeXgStFkQvejHrbNX-115">
          <mxGeometry width="50" height="50" relative="1" as="geometry">
            <mxPoint x="1224" y="1973" as="sourcePoint" />
            <mxPoint x="1224" y="1943" as="targetPoint" />
          </mxGeometry>
        </mxCell>
        <mxCell id="zDroeXgStFkQvejHrbNX-117" value="Assigns &quot;Kart&quot; variable for player" style="rounded=1;whiteSpace=wrap;html=1;fillColor=light-dark(#D80073,#009900);fontColor=#ffffff;strokeColor=#A50040;" vertex="1" parent="1">
          <mxGeometry x="1164" y="1943" width="120" height="40" as="geometry" />
        </mxCell>
        <mxCell id="zDroeXgStFkQvejHrbNX-118" value="" style="edgeStyle=segmentEdgeStyle;endArrow=classic;html=1;curved=0;rounded=0;endSize=8;startSize=8;exitX=0.467;exitY=1.017;exitDx=0;exitDy=0;exitPerimeter=0;entryX=0.5;entryY=0;entryDx=0;entryDy=0;" edge="1" parent="1" source="zDroeXgStFkQvejHrbNX-98" target="zDroeXgStFkQvejHrbNX-115">
          <mxGeometry width="50" height="50" relative="1" as="geometry">
            <mxPoint x="1034" y="1584" as="sourcePoint" />
            <mxPoint x="1364" y="1843" as="targetPoint" />
          </mxGeometry>
        </mxCell>
        <mxCell id="zDroeXgStFkQvejHrbNX-119" value="Click" style="edgeLabel;html=1;align=center;verticalAlign=middle;resizable=0;points=[];" vertex="1" connectable="0" parent="zDroeXgStFkQvejHrbNX-118">
          <mxGeometry x="-0.0845" y="-1" relative="1" as="geometry">
            <mxPoint as="offset" />
          </mxGeometry>
        </mxCell>
        <mxCell id="zDroeXgStFkQvejHrbNX-120" value="Map Selection" style="shape=table;startSize=30;container=1;collapsible=0;childLayout=tableLayout;fixedRows=1;rowLines=0;fontStyle=0;strokeColor=default;fontSize=16;" vertex="1" parent="1">
          <mxGeometry x="1164" y="2036" width="120" height="110" as="geometry" />
        </mxCell>
        <mxCell id="zDroeXgStFkQvejHrbNX-121" value="" style="shape=tableRow;horizontal=0;startSize=0;swimlaneHead=0;swimlaneBody=0;top=0;left=0;bottom=0;right=0;collapsible=0;dropTarget=0;fillColor=none;points=[[0,0.5],[1,0.5]];portConstraint=eastwest;strokeColor=inherit;fontSize=16;" vertex="1" parent="zDroeXgStFkQvejHrbNX-120">
          <mxGeometry y="30" width="120" height="20" as="geometry" />
        </mxCell>
        <mxCell id="zDroeXgStFkQvejHrbNX-122" value="1" style="shape=partialRectangle;html=1;whiteSpace=wrap;connectable=0;fillColor=none;top=0;left=0;bottom=0;right=0;overflow=hidden;pointerEvents=1;strokeColor=inherit;fontSize=16;" vertex="1" parent="zDroeXgStFkQvejHrbNX-121">
          <mxGeometry width="27" height="20" as="geometry">
            <mxRectangle width="27" height="20" as="alternateBounds" />
          </mxGeometry>
        </mxCell>
        <mxCell id="zDroeXgStFkQvejHrbNX-123" value="Value 1" style="shape=partialRectangle;html=1;whiteSpace=wrap;connectable=0;fillColor=none;top=0;left=0;bottom=0;right=0;align=left;spacingLeft=6;overflow=hidden;strokeColor=inherit;fontSize=16;" vertex="1" parent="zDroeXgStFkQvejHrbNX-121">
          <mxGeometry x="27" width="93" height="20" as="geometry">
            <mxRectangle width="93" height="20" as="alternateBounds" />
          </mxGeometry>
        </mxCell>
        <mxCell id="zDroeXgStFkQvejHrbNX-124" value="" style="shape=tableRow;horizontal=0;startSize=0;swimlaneHead=0;swimlaneBody=0;top=0;left=0;bottom=0;right=0;collapsible=0;dropTarget=0;fillColor=none;points=[[0,0.5],[1,0.5]];portConstraint=eastwest;strokeColor=inherit;fontSize=16;" vertex="1" parent="zDroeXgStFkQvejHrbNX-120">
          <mxGeometry y="50" width="120" height="30" as="geometry" />
        </mxCell>
        <mxCell id="zDroeXgStFkQvejHrbNX-125" value="2" style="shape=partialRectangle;html=1;whiteSpace=wrap;connectable=0;fillColor=none;top=0;left=0;bottom=0;right=0;overflow=hidden;strokeColor=inherit;fontSize=16;" vertex="1" parent="zDroeXgStFkQvejHrbNX-124">
          <mxGeometry width="27" height="30" as="geometry">
            <mxRectangle width="27" height="30" as="alternateBounds" />
          </mxGeometry>
        </mxCell>
        <mxCell id="zDroeXgStFkQvejHrbNX-126" value="Value 2" style="shape=partialRectangle;html=1;whiteSpace=wrap;connectable=0;fillColor=none;top=0;left=0;bottom=0;right=0;align=left;spacingLeft=6;overflow=hidden;strokeColor=inherit;fontSize=16;" vertex="1" parent="zDroeXgStFkQvejHrbNX-124">
          <mxGeometry x="27" width="93" height="30" as="geometry">
            <mxRectangle width="93" height="30" as="alternateBounds" />
          </mxGeometry>
        </mxCell>
        <mxCell id="zDroeXgStFkQvejHrbNX-127" value="" style="shape=tableRow;horizontal=0;startSize=0;swimlaneHead=0;swimlaneBody=0;top=0;left=0;bottom=0;right=0;collapsible=0;dropTarget=0;fillColor=none;points=[[0,0.5],[1,0.5]];portConstraint=eastwest;strokeColor=inherit;fontSize=16;" vertex="1" parent="zDroeXgStFkQvejHrbNX-120">
          <mxGeometry y="80" width="120" height="30" as="geometry" />
        </mxCell>
        <mxCell id="zDroeXgStFkQvejHrbNX-128" value="3" style="shape=partialRectangle;html=1;whiteSpace=wrap;connectable=0;fillColor=none;top=0;left=0;bottom=0;right=0;overflow=hidden;strokeColor=inherit;fontSize=16;" vertex="1" parent="zDroeXgStFkQvejHrbNX-127">
          <mxGeometry width="27" height="30" as="geometry">
            <mxRectangle width="27" height="30" as="alternateBounds" />
          </mxGeometry>
        </mxCell>
        <mxCell id="zDroeXgStFkQvejHrbNX-129" value="Value 3" style="shape=partialRectangle;html=1;whiteSpace=wrap;connectable=0;fillColor=none;top=0;left=0;bottom=0;right=0;align=left;spacingLeft=6;overflow=hidden;strokeColor=inherit;fontSize=16;" vertex="1" parent="zDroeXgStFkQvejHrbNX-127">
          <mxGeometry x="27" width="93" height="30" as="geometry">
            <mxRectangle width="93" height="30" as="alternateBounds" />
          </mxGeometry>
        </mxCell>
        <mxCell id="zDroeXgStFkQvejHrbNX-130" value="Hover" style="edgeLabel;html=1;align=center;verticalAlign=middle;resizable=0;points=[];" vertex="1" connectable="0" parent="1">
          <mxGeometry x="1307" y="1983" as="geometry" />
        </mxCell>
        <mxCell id="zDroeXgStFkQvejHrbNX-131" style="edgeStyle=orthogonalEdgeStyle;rounded=0;orthogonalLoop=1;jettySize=auto;html=1;exitX=1;exitY=0.5;exitDx=0;exitDy=0;entryX=0;entryY=0.5;entryDx=0;entryDy=0;" edge="1" parent="1" source="zDroeXgStFkQvejHrbNX-132" target="zDroeXgStFkQvejHrbNX-172">
          <mxGeometry relative="1" as="geometry" />
        </mxCell>
        <mxCell id="zDroeXgStFkQvejHrbNX-132" value="Select/Confirm?" style="rounded=1;whiteSpace=wrap;html=1;" vertex="1" parent="1">
          <mxGeometry x="1168" y="2176" width="120" height="30" as="geometry" />
        </mxCell>
        <mxCell id="zDroeXgStFkQvejHrbNX-133" style="edgeStyle=orthogonalEdgeStyle;rounded=0;orthogonalLoop=1;jettySize=auto;html=1;exitX=0;exitY=0.5;exitDx=0;exitDy=0;entryX=0;entryY=0.5;entryDx=0;entryDy=0;" edge="1" parent="1" source="zDroeXgStFkQvejHrbNX-134" target="zDroeXgStFkQvejHrbNX-21">
          <mxGeometry relative="1" as="geometry">
            <Array as="points">
              <mxPoint x="60" y="2266" />
              <mxPoint x="60" y="744" />
            </Array>
          </mxGeometry>
        </mxCell>
        <mxCell id="zDroeXgStFkQvejHrbNX-134" value="Loads Map" style="rounded=1;whiteSpace=wrap;html=1;fillColor=light-dark(#D80073,#009900);fontColor=#ffffff;strokeColor=#A50040;" vertex="1" parent="1">
          <mxGeometry x="1168" y="2246" width="120" height="40" as="geometry" />
        </mxCell>
        <mxCell id="zDroeXgStFkQvejHrbNX-135" value="" style="edgeStyle=segmentEdgeStyle;endArrow=classic;html=1;curved=0;rounded=0;endSize=8;startSize=8;exitX=0.467;exitY=1.017;exitDx=0;exitDy=0;exitPerimeter=0;entryX=0.5;entryY=0;entryDx=0;entryDy=0;" edge="1" parent="1" source="zDroeXgStFkQvejHrbNX-127" target="zDroeXgStFkQvejHrbNX-132">
          <mxGeometry width="50" height="50" relative="1" as="geometry">
            <mxPoint x="1038" y="1887" as="sourcePoint" />
            <mxPoint x="1368" y="2146" as="targetPoint" />
          </mxGeometry>
        </mxCell>
        <mxCell id="zDroeXgStFkQvejHrbNX-136" value="Click" style="edgeLabel;html=1;align=center;verticalAlign=middle;resizable=0;points=[];" vertex="1" connectable="0" parent="zDroeXgStFkQvejHrbNX-135">
          <mxGeometry x="-0.0845" y="-1" relative="1" as="geometry">
            <mxPoint as="offset" />
          </mxGeometry>
        </mxCell>
        <mxCell id="zDroeXgStFkQvejHrbNX-137" value="" style="edgeStyle=segmentEdgeStyle;endArrow=classic;html=1;curved=0;rounded=0;endSize=8;startSize=8;exitX=0.5;exitY=1;exitDx=0;exitDy=0;entryX=0.5;entryY=0;entryDx=0;entryDy=0;" edge="1" parent="1" target="zDroeXgStFkQvejHrbNX-120">
          <mxGeometry width="50" height="50" relative="1" as="geometry">
            <mxPoint x="1223.5" y="1983" as="sourcePoint" />
            <mxPoint x="1223.5" y="2023" as="targetPoint" />
          </mxGeometry>
        </mxCell>
        <mxCell id="zDroeXgStFkQvejHrbNX-138" value="Maybe a voting system?" style="shape=ext;double=1;rounded=1;whiteSpace=wrap;html=1;fillColor=light-dark(#FAD9D5,#FF6666);strokeColor=#ae4132;" vertex="1" parent="1">
          <mxGeometry x="1004" y="2051" width="120" height="80" as="geometry" />
        </mxCell>
        <mxCell id="zDroeXgStFkQvejHrbNX-139" value="" style="shape=link;html=1;rounded=0;width=5;" edge="1" parent="1">
          <mxGeometry width="100" relative="1" as="geometry">
            <mxPoint x="1124" y="2091" as="sourcePoint" />
            <mxPoint x="1164" y="2090.5" as="targetPoint" />
          </mxGeometry>
        </mxCell>
        <mxCell id="zDroeXgStFkQvejHrbNX-140" value="next" style="text;html=1;align=center;verticalAlign=middle;resizable=0;points=[];autosize=1;strokeColor=none;fillColor=none;" vertex="1" parent="1">
          <mxGeometry x="395" y="534" width="50" height="30" as="geometry" />
        </mxCell>
        <mxCell id="zDroeXgStFkQvejHrbNX-141" value="next" style="text;html=1;align=center;verticalAlign=middle;resizable=0;points=[];autosize=1;strokeColor=none;fillColor=none;" vertex="1" parent="1">
          <mxGeometry x="464" y="1776" width="50" height="30" as="geometry" />
        </mxCell>
        <mxCell id="zDroeXgStFkQvejHrbNX-142" value="next" style="text;html=1;align=center;verticalAlign=middle;resizable=0;points=[];autosize=1;strokeColor=none;fillColor=none;" vertex="1" parent="1">
          <mxGeometry x="1100" y="2266" width="50" height="30" as="geometry" />
        </mxCell>
        <mxCell id="zDroeXgStFkQvejHrbNX-143" value="" style="edgeStyle=orthogonalEdgeStyle;rounded=0;orthogonalLoop=1;jettySize=auto;html=1;" edge="1" parent="1" source="zDroeXgStFkQvejHrbNX-146" target="zDroeXgStFkQvejHrbNX-147">
          <mxGeometry relative="1" as="geometry" />
        </mxCell>
        <mxCell id="zDroeXgStFkQvejHrbNX-144" value="" style="edgeStyle=orthogonalEdgeStyle;rounded=0;orthogonalLoop=1;jettySize=auto;html=1;" edge="1" parent="1" source="zDroeXgStFkQvejHrbNX-146" target="zDroeXgStFkQvejHrbNX-149">
          <mxGeometry relative="1" as="geometry" />
        </mxCell>
        <mxCell id="zDroeXgStFkQvejHrbNX-145" style="edgeStyle=orthogonalEdgeStyle;rounded=0;orthogonalLoop=1;jettySize=auto;html=1;exitX=0;exitY=0.5;exitDx=0;exitDy=0;entryX=0.11;entryY=0.11;entryDx=0;entryDy=0;entryPerimeter=0;" edge="1" parent="1" source="zDroeXgStFkQvejHrbNX-147" target="zDroeXgStFkQvejHrbNX-5">
          <mxGeometry relative="1" as="geometry">
            <mxPoint x="155" y="116" as="targetPoint" />
            <Array as="points">
              <mxPoint x="210" y="256" />
              <mxPoint x="210" y="393" />
            </Array>
          </mxGeometry>
        </mxCell>
        <mxCell id="zDroeXgStFkQvejHrbNX-146" value="title screen" style="rounded=0;whiteSpace=wrap;html=1;fillColor=light-dark(#FFFFFF,#3333FF);" vertex="1" parent="1">
          <mxGeometry x="255" y="86" width="120" height="60" as="geometry" />
        </mxCell>
        <mxCell id="zDroeXgStFkQvejHrbNX-147" value="account creation/sign in screen" style="whiteSpace=wrap;html=1;rounded=0;fillColor=light-dark(#FFFFFF,#FF6666);" vertex="1" parent="1">
          <mxGeometry x="255" y="226" width="120" height="60" as="geometry" />
        </mxCell>
        <mxCell id="zDroeXgStFkQvejHrbNX-148" style="edgeStyle=orthogonalEdgeStyle;rounded=0;orthogonalLoop=1;jettySize=auto;html=1;exitX=0;exitY=0.75;exitDx=0;exitDy=0;entryX=1;entryY=0.75;entryDx=0;entryDy=0;" edge="1" parent="1" source="zDroeXgStFkQvejHrbNX-149" target="zDroeXgStFkQvejHrbNX-146">
          <mxGeometry relative="1" as="geometry" />
        </mxCell>
        <mxCell id="zDroeXgStFkQvejHrbNX-149" value="leaderboard (top 50 players by username, rank, coins)" style="whiteSpace=wrap;html=1;rounded=0;fillColor=light-dark(#FFFFFF,#FF6666);" vertex="1" parent="1">
          <mxGeometry x="455" y="86" width="120" height="60" as="geometry" />
        </mxCell>
        <mxCell id="zDroeXgStFkQvejHrbNX-150" value="play" style="text;html=1;align=center;verticalAlign=middle;resizable=0;points=[];autosize=1;strokeColor=none;fillColor=none;" vertex="1" parent="1">
          <mxGeometry x="200" y="230" width="50" height="30" as="geometry" />
        </mxCell>
        <mxCell id="zDroeXgStFkQvejHrbNX-151" value="leaderboard" style="text;html=1;align=center;verticalAlign=middle;resizable=0;points=[];autosize=1;strokeColor=none;fillColor=none;" vertex="1" parent="1">
          <mxGeometry x="365" y="94" width="90" height="30" as="geometry" />
        </mxCell>
        <mxCell id="zDroeXgStFkQvejHrbNX-152" value="sign in" style="text;html=1;align=center;verticalAlign=middle;resizable=0;points=[];autosize=1;strokeColor=none;fillColor=none;" vertex="1" parent="1">
          <mxGeometry x="310" y="168" width="60" height="30" as="geometry" />
        </mxCell>
        <mxCell id="zDroeXgStFkQvejHrbNX-153" value="back" style="text;html=1;align=center;verticalAlign=middle;resizable=0;points=[];autosize=1;strokeColor=none;fillColor=none;" vertex="1" parent="1">
          <mxGeometry x="385" y="128" width="50" height="30" as="geometry" />
        </mxCell>
        <mxCell id="zDroeXgStFkQvejHrbNX-154" value="Weather Engine" style="rounded=0;whiteSpace=wrap;html=1;" vertex="1" parent="1">
          <mxGeometry x="1630" y="1543" width="470" height="60" as="geometry" />
        </mxCell>
        <mxCell id="zDroeXgStFkQvejHrbNX-155" value="Weather States" style="swimlane;fontStyle=0;childLayout=stackLayout;horizontal=1;startSize=26;fillColor=none;horizontalStack=0;resizeParent=1;resizeParentMax=0;resizeLast=0;collapsible=1;marginBottom=0;html=1;" vertex="1" parent="1">
          <mxGeometry x="1450" y="1643" width="230" height="156" as="geometry">
            <mxRectangle x="360" y="290" width="120" height="30" as="alternateBounds" />
          </mxGeometry>
        </mxCell>
        <mxCell id="zDroeXgStFkQvejHrbNX-156" value="☀️ Sunny" style="text;strokeColor=none;fillColor=none;align=left;verticalAlign=top;spacingLeft=4;spacingRight=4;overflow=hidden;rotatable=0;points=[[0,0.5],[1,0.5]];portConstraint=eastwest;whiteSpace=wrap;html=1;" vertex="1" parent="zDroeXgStFkQvejHrbNX-155">
          <mxGeometry y="26" width="230" height="26" as="geometry" />
        </mxCell>
        <mxCell id="zDroeXgStFkQvejHrbNX-157" value="🌧️ Rainy" style="text;strokeColor=none;fillColor=none;align=left;verticalAlign=top;spacingLeft=4;spacingRight=4;overflow=hidden;rotatable=0;points=[[0,0.5],[1,0.5]];portConstraint=eastwest;whiteSpace=wrap;html=1;" vertex="1" parent="zDroeXgStFkQvejHrbNX-155">
          <mxGeometry y="52" width="230" height="26" as="geometry" />
        </mxCell>
        <mxCell id="zDroeXgStFkQvejHrbNX-158" value="🌨️ Snowy" style="text;strokeColor=none;fillColor=none;align=left;verticalAlign=top;spacingLeft=4;spacingRight=4;overflow=hidden;rotatable=0;points=[[0,0.5],[1,0.5]];portConstraint=eastwest;whiteSpace=wrap;html=1;" vertex="1" parent="zDroeXgStFkQvejHrbNX-155">
          <mxGeometry y="78" width="230" height="26" as="geometry" />
        </mxCell>
        <mxCell id="zDroeXgStFkQvejHrbNX-159" value="🌫️ Foggy" style="text;strokeColor=none;fillColor=none;align=left;verticalAlign=top;spacingLeft=4;spacingRight=4;overflow=hidden;rotatable=0;points=[[0,0.5],[1,0.5]];portConstraint=eastwest;whiteSpace=wrap;html=1;" vertex="1" parent="zDroeXgStFkQvejHrbNX-155">
          <mxGeometry y="104" width="230" height="26" as="geometry" />
        </mxCell>
        <mxCell id="zDroeXgStFkQvejHrbNX-160" value="🌬️ Windy" style="text;strokeColor=none;fillColor=none;align=left;verticalAlign=top;spacingLeft=4;spacingRight=4;overflow=hidden;rotatable=0;points=[[0,0.5],[1,0.5]];portConstraint=eastwest;whiteSpace=wrap;html=1;" vertex="1" parent="zDroeXgStFkQvejHrbNX-155">
          <mxGeometry y="130" width="230" height="26" as="geometry" />
        </mxCell>
        <mxCell id="zDroeXgStFkQvejHrbNX-161" value="Weather Effects" style="swimlane;childLayout=stackLayout;resizeParent=1;resizeParentMax=0;horizontal=1;startSize=20;horizontalStack=0;html=1;" vertex="1" parent="1">
          <mxGeometry x="1760" y="1633" width="250" height="250" as="geometry" />
        </mxCell>
        <mxCell id="zDroeXgStFkQvejHrbNX-162" value="Visual" style="swimlane;startSize=20;horizontal=0;html=1;" vertex="1" parent="zDroeXgStFkQvejHrbNX-161">
          <mxGeometry y="20" width="250" height="70" as="geometry" />
        </mxCell>
        <mxCell id="zDroeXgStFkQvejHrbNX-163" value="Particles&lt;div&gt;Skybox change&lt;/div&gt;&lt;div&gt;Lighting tweak&lt;/div&gt;" style="text;html=1;align=center;verticalAlign=middle;resizable=0;points=[];autosize=1;strokeColor=none;fillColor=none;" vertex="1" parent="zDroeXgStFkQvejHrbNX-162">
          <mxGeometry x="20" width="110" height="60" as="geometry" />
        </mxCell>
        <mxCell id="zDroeXgStFkQvejHrbNX-164" value="Audio" style="swimlane;startSize=20;horizontal=0;html=1;" vertex="1" parent="zDroeXgStFkQvejHrbNX-161">
          <mxGeometry y="90" width="250" height="80" as="geometry" />
        </mxCell>
        <mxCell id="zDroeXgStFkQvejHrbNX-165" value="Ambient sounds:&amp;nbsp;&lt;div&gt;rain&lt;/div&gt;&lt;div&gt;wind&lt;/div&gt;&lt;div&gt;etc&lt;/div&gt;" style="text;html=1;align=center;verticalAlign=middle;resizable=0;points=[];autosize=1;strokeColor=none;fillColor=none;" vertex="1" parent="zDroeXgStFkQvejHrbNX-164">
          <mxGeometry x="20" width="120" height="70" as="geometry" />
        </mxCell>
        <mxCell id="zDroeXgStFkQvejHrbNX-166" value="" style="html=1;shadow=0;dashed=0;align=center;verticalAlign=middle;shape=mxgraph.arrows2.arrow;dy=0.6;dx=40;notch=0;" vertex="1" parent="zDroeXgStFkQvejHrbNX-164">
          <mxGeometry x="-80" width="80" height="32" as="geometry" />
        </mxCell>
        <mxCell id="zDroeXgStFkQvejHrbNX-167" value="Gameplay&amp;nbsp;&lt;div&gt;Modifiers&lt;/div&gt;" style="swimlane;startSize=30;horizontal=0;html=1;" vertex="1" parent="zDroeXgStFkQvejHrbNX-161">
          <mxGeometry y="170" width="250" height="80" as="geometry" />
        </mxCell>
        <mxCell id="zDroeXgStFkQvejHrbNX-168" value="kart traction&lt;div&gt;visibility&amp;nbsp;&lt;/div&gt;&lt;div&gt;speed&lt;/div&gt;&lt;div&gt;slippage&lt;/div&gt;" style="text;html=1;align=center;verticalAlign=middle;resizable=0;points=[];autosize=1;strokeColor=none;fillColor=none;" vertex="1" parent="zDroeXgStFkQvejHrbNX-167">
          <mxGeometry x="30" width="90" height="70" as="geometry" />
        </mxCell>
        <mxCell id="zDroeXgStFkQvejHrbNX-169" value="Weather Transition System: smooth blending between weather states" style="whiteSpace=wrap;html=1;align=center;verticalAlign=middle;treeFolding=1;treeMoving=1;newEdgeStyle={&quot;edgeStyle&quot;:&quot;elbowEdgeStyle&quot;,&quot;startArrow&quot;:&quot;none&quot;,&quot;endArrow&quot;:&quot;none&quot;};" vertex="1" parent="1">
          <mxGeometry x="2090" y="1701" width="150" height="122" as="geometry" />
        </mxCell>
        <mxCell id="zDroeXgStFkQvejHrbNX-170" value="" style="edgeStyle=elbowEdgeStyle;elbow=vertical;sourcePerimeterSpacing=0;targetPerimeterSpacing=0;startArrow=none;endArrow=none;rounded=0;curved=0;" edge="1" parent="1" target="zDroeXgStFkQvejHrbNX-169">
          <mxGeometry relative="1" as="geometry">
            <mxPoint x="2010" y="1753" as="sourcePoint" />
          </mxGeometry>
        </mxCell>
        <mxCell id="zDroeXgStFkQvejHrbNX-171" style="edgeStyle=orthogonalEdgeStyle;rounded=0;orthogonalLoop=1;jettySize=auto;html=1;exitX=0.5;exitY=0;exitDx=0;exitDy=0;entryX=0.5;entryY=0;entryDx=0;entryDy=0;" edge="1" parent="1" source="zDroeXgStFkQvejHrbNX-172" target="zDroeXgStFkQvejHrbNX-155">
          <mxGeometry relative="1" as="geometry">
            <Array as="points">
              <mxPoint x="1480" y="2020" />
              <mxPoint x="1400" y="2020" />
              <mxPoint x="1400" y="1560" />
              <mxPoint x="1565" y="1560" />
            </Array>
          </mxGeometry>
        </mxCell>
        <mxCell id="zDroeXgStFkQvejHrbNX-172" value="weather selection process" style="rounded=0;whiteSpace=wrap;html=1;" vertex="1" parent="1">
          <mxGeometry x="1420" y="2086" width="120" height="60" as="geometry" />
        </mxCell>
        <mxCell id="zDroeXgStFkQvejHrbNX-174" style="edgeStyle=orthogonalEdgeStyle;rounded=0;orthogonalLoop=1;jettySize=auto;html=1;exitX=1;exitY=0.5;exitDx=0;exitDy=0;entryX=1;entryY=0.5;entryDx=0;entryDy=0;" edge="1" parent="1" source="zDroeXgStFkQvejHrbNX-160" target="zDroeXgStFkQvejHrbNX-134">
          <mxGeometry relative="1" as="geometry" />
        </mxCell>
        <mxCell id="zDroeXgStFkQvejHrbNX-175" value="account manager information area" style="text;strokeColor=none;fillColor=none;align=left;verticalAlign=middle;spacingLeft=4;spacingRight=4;overflow=hidden;points=[[0,0.5],[1,0.5]];portConstraint=eastwest;rotatable=0;whiteSpace=wrap;html=1;" vertex="1" parent="1">
          <mxGeometry x="1450" y="25" width="240" height="30" as="geometry" />
        </mxCell>
        <mxCell id="zDroeXgStFkQvejHrbNX-176" value="" style="endArrow=none;dashed=1;html=1;rounded=0;exitX=1;exitY=0.5;exitDx=0;exitDy=0;entryX=0;entryY=0.5;entryDx=0;entryDy=0;" edge="1" parent="1" source="zDroeXgStFkQvejHrbNX-147" target="zDroeXgStFkQvejHrbNX-175">
          <mxGeometry width="50" height="50" relative="1" as="geometry">
            <mxPoint x="1230" y="860" as="sourcePoint" />
            <mxPoint x="1280" y="810" as="targetPoint" />
            <Array as="points">
              <mxPoint x="820" y="50" />
            </Array>
          </mxGeometry>
        </mxCell>
        <mxCell id="zDroeXgStFkQvejHrbNX-177" value="In Game" style="swimlane;childLayout=stackLayout;resizeParent=1;resizeParentMax=0;horizontal=1;startSize=20;horizontalStack=0;html=1;" vertex="1" parent="1">
          <mxGeometry x="905" y="720.0000000000001" width="480" height="420" as="geometry" />
        </mxCell>
        <mxCell id="zDroeXgStFkQvejHrbNX-178" value="Location 1" style="swimlane;startSize=20;horizontal=0;html=1;" vertex="1" parent="zDroeXgStFkQvejHrbNX-177">
          <mxGeometry y="20" width="480" height="160" as="geometry" />
        </mxCell>
        <mxCell id="zDroeXgStFkQvejHrbNX-179" value="&lt;h1 style=&quot;margin-top: 0px;&quot;&gt;&lt;span style=&quot;background-color: transparent; color: light-dark(rgb(0, 0, 0), rgb(255, 255, 255));&quot;&gt;BACKPACKS&lt;/span&gt;&lt;/h1&gt;&lt;h1 style=&quot;margin-top: 0px;&quot;&gt;&lt;span style=&quot;font-size: 12px; font-weight: 400;&quot;&gt;backpack obstacles on the map which slow the kart down momentarily&lt;/span&gt;&lt;/h1&gt;" style="text;html=1;whiteSpace=wrap;overflow=hidden;rounded=0;" vertex="1" parent="zDroeXgStFkQvejHrbNX-178">
          <mxGeometry x="40" y="20" width="180" height="120" as="geometry" />
        </mxCell>
        <mxCell id="zDroeXgStFkQvejHrbNX-180" value="Location 2" style="swimlane;startSize=20;horizontal=0;html=1;" vertex="1" parent="zDroeXgStFkQvejHrbNX-177">
          <mxGeometry y="180" width="480" height="120" as="geometry" />
        </mxCell>
        <mxCell id="zDroeXgStFkQvejHrbNX-181" value="&lt;h1 style=&quot;margin-top: 0px;&quot;&gt;&lt;span style=&quot;background-color: transparent; color: light-dark(rgb(0, 0, 0), rgb(255, 255, 255));&quot;&gt;Tables&lt;/span&gt;&lt;/h1&gt;&lt;h1 style=&quot;margin-top: 0px;&quot;&gt;&lt;span style=&quot;font-size: 12px; font-weight: 400; background-color: transparent; color: light-dark(rgb(0, 0, 0), rgb(255, 255, 255));&quot;&gt;can damage the kart if run into the table --&amp;gt; set back a few seconds&lt;/span&gt;&lt;/h1&gt;" style="text;html=1;whiteSpace=wrap;overflow=hidden;rounded=0;" vertex="1" parent="zDroeXgStFkQvejHrbNX-180">
          <mxGeometry x="40" width="260" height="120" as="geometry" />
        </mxCell>
        <mxCell id="zDroeXgStFkQvejHrbNX-182" value="Location 3" style="swimlane;startSize=20;horizontal=0;html=1;" vertex="1" parent="zDroeXgStFkQvejHrbNX-177">
          <mxGeometry y="300" width="480" height="120" as="geometry" />
        </mxCell>
        <mxCell id="zDroeXgStFkQvejHrbNX-183" value="&lt;h1 style=&quot;margin-top: 0px;&quot;&gt;&lt;span style=&quot;background-color: transparent; color: light-dark(rgb(0, 0, 0), rgb(255, 255, 255));&quot;&gt;Squirrels&lt;/span&gt;&lt;/h1&gt;&lt;h1 style=&quot;margin-top: 0px;&quot;&gt;&lt;span style=&quot;background-color: transparent; color: light-dark(rgb(0, 0, 0), rgb(255, 255, 255)); font-size: 12px; font-weight: 400;&quot;&gt;you are disqualified from the game if you hit a squirrel&lt;/span&gt;&lt;/h1&gt;" style="text;html=1;whiteSpace=wrap;overflow=hidden;rounded=0;" vertex="1" parent="zDroeXgStFkQvejHrbNX-182">
          <mxGeometry x="40" width="260" height="120" as="geometry" />
        </mxCell>
        <mxCell id="zDroeXgStFkQvejHrbNX-184" value="" style="strokeWidth=2;html=1;shape=mxgraph.flowchart.annotation_2;align=left;labelPosition=right;pointerEvents=1;rotation=-180;" vertex="1" parent="1">
          <mxGeometry x="1405" y="720.0000000000001" width="50" height="370" as="geometry" />
        </mxCell>
        <mxCell id="zDroeXgStFkQvejHrbNX-185" value="STUDENTS" style="text;html=1;align=center;verticalAlign=middle;whiteSpace=wrap;rounded=0;" vertex="1" parent="1">
          <mxGeometry x="1475" y="890.0000000000001" width="60" height="30" as="geometry" />
        </mxCell>
        <mxCell id="zDroeXgStFkQvejHrbNX-186" style="edgeStyle=orthogonalEdgeStyle;rounded=0;orthogonalLoop=1;jettySize=auto;html=1;exitX=0.25;exitY=1;exitDx=0;exitDy=0;" edge="1" parent="1" source="zDroeXgStFkQvejHrbNX-188" target="zDroeXgStFkQvejHrbNX-190">
          <mxGeometry relative="1" as="geometry" />
        </mxCell>
        <mxCell id="zDroeXgStFkQvejHrbNX-187" style="edgeStyle=orthogonalEdgeStyle;rounded=0;orthogonalLoop=1;jettySize=auto;html=1;exitX=0.75;exitY=1;exitDx=0;exitDy=0;" edge="1" parent="1" source="zDroeXgStFkQvejHrbNX-188" target="zDroeXgStFkQvejHrbNX-189">
          <mxGeometry relative="1" as="geometry" />
        </mxCell>
        <mxCell id="zDroeXgStFkQvejHrbNX-188" value="&lt;b&gt;Network Manager&lt;/b&gt;&lt;li class=&quot;&quot; data-end=&quot;324&quot; data-start=&quot;248&quot;&gt;&lt;p class=&quot;&quot; data-end=&quot;324&quot; data-start=&quot;250&quot;&gt;&lt;strong data-end=&quot;267&quot; data-start=&quot;250&quot;&gt;&lt;code data-end=&quot;265&quot; data-start=&quot;252&quot;&gt;StartHost()&lt;/code&gt;&lt;/strong&gt;: Starts the game as both the server and the host client.&lt;/p&gt;&lt;/li&gt;&lt;li class=&quot;&quot; data-end=&quot;394&quot; data-start=&quot;325&quot;&gt;&lt;br&gt;&lt;p class=&quot;&quot; data-end=&quot;394&quot; data-start=&quot;327&quot;&gt;&lt;strong data-end=&quot;346&quot; data-start=&quot;327&quot;&gt;&lt;code data-end=&quot;344&quot; data-start=&quot;329&quot;&gt;StartClient()&lt;/code&gt;&lt;/strong&gt;: Connects the local player to a running server.&lt;/p&gt;&lt;/li&gt;&lt;li class=&quot;&quot; data-end=&quot;459&quot; data-start=&quot;395&quot;&gt;&lt;br&gt;&lt;p class=&quot;&quot; data-end=&quot;459&quot; data-start=&quot;397&quot;&gt;&lt;strong data-end=&quot;416&quot; data-start=&quot;397&quot;&gt;&lt;code data-end=&quot;414&quot; data-start=&quot;399&quot;&gt;StartServer()&lt;/code&gt;&lt;/strong&gt;: Starts the server without a local player.&lt;/p&gt;&lt;/li&gt;&lt;li class=&quot;&quot; data-end=&quot;521&quot; data-start=&quot;460&quot;&gt;&lt;p class=&quot;&quot; data-end=&quot;521&quot; data-start=&quot;462&quot;&gt;&lt;strong data-end=&quot;478&quot; data-start=&quot;462&quot;&gt;&lt;code data-end=&quot;476&quot; data-start=&quot;464&quot;&gt;Shutdown()&lt;/code&gt;&lt;/strong&gt;: Gracefully stops all networking activity.&lt;/p&gt;&lt;/li&gt;&lt;li class=&quot;&quot; data-end=&quot;638&quot; data-start=&quot;522&quot;&gt;&lt;br&gt;&lt;p class=&quot;&quot; data-end=&quot;638&quot; data-start=&quot;524&quot;&gt;&lt;strong data-end=&quot;571&quot; data-start=&quot;524&quot;&gt;&lt;code data-end=&quot;569&quot; data-start=&quot;526&quot;&gt;OnClientConnectedCallback(ulong clientId)&lt;/code&gt;&lt;/strong&gt;: Triggered when a new player successfully connects to the session.&lt;/p&gt;&lt;/li&gt;&lt;li class=&quot;&quot; data-end=&quot;740&quot; data-start=&quot;639&quot;&gt;&lt;br&gt;&lt;p class=&quot;&quot; data-end=&quot;740&quot; data-start=&quot;641&quot;&gt;&lt;strong data-end=&quot;689&quot; data-start=&quot;641&quot;&gt;&lt;code data-end=&quot;687&quot; data-start=&quot;643&quot;&gt;OnClientDisconnectCallback(ulong clientId)&lt;/code&gt;&lt;/strong&gt;: Triggered when a player disconnects or times out.&lt;/p&gt;&lt;/li&gt;&lt;div&gt;&amp;nbsp;&lt;/div&gt;" style="rounded=1;whiteSpace=wrap;html=1;fillColor=#d5e8d4;strokeColor=#82b366;" vertex="1" parent="1">
          <mxGeometry x="3080" y="890" width="410" height="453" as="geometry" />
        </mxCell>
        <mxCell id="zDroeXgStFkQvejHrbNX-189" value="&lt;h3 class=&quot;&quot; data-end=&quot;3037&quot; data-start=&quot;3008&quot;&gt;&lt;strong data-end=&quot;3037&quot; data-start=&quot;3012&quot;&gt;NetworkPrefabs(&lt;/strong&gt;&lt;span style=&quot;background-color: transparent; color: light-dark(rgb(0, 0, 0), rgb(255, 255, 255)); font-size: 12px; font-weight: normal;&quot;&gt;The &lt;/span&gt;&lt;strong style=&quot;background-color: transparent; color: light-dark(rgb(0, 0, 0), rgb(255, 255, 255)); font-size: 12px;&quot; data-end=&quot;803&quot; data-start=&quot;794&quot;&gt;thing&lt;/strong&gt;&lt;span style=&quot;background-color: transparent; color: light-dark(rgb(0, 0, 0), rgb(255, 255, 255)); font-size: 12px; font-weight: normal;&quot;&gt; that actually shows up in the game when a player joins.&lt;/span&gt;&lt;span style=&quot;background-color: transparent; color: light-dark(rgb(0, 0, 0), rgb(255, 255, 255)); font-size: 12px; font-weight: normal;&quot;&gt;Could be a cube, a kart, a character — anything.)&lt;/span&gt;&lt;/h3&gt;&lt;ul data-end=&quot;3124&quot; data-start=&quot;3038&quot;&gt;&lt;li class=&quot;&quot; data-end=&quot;3124&quot; data-start=&quot;3038&quot;&gt;&lt;p class=&quot;&quot; data-end=&quot;3124&quot; data-start=&quot;3040&quot;&gt;&lt;strong data-end=&quot;3058&quot; data-start=&quot;3040&quot;&gt;&lt;code data-end=&quot;3056&quot; data-start=&quot;3042&quot;&gt;PlayerPrefab&lt;/code&gt;&lt;/strong&gt;: Reference to the player kart prefab, used when spawning players&lt;/p&gt;&lt;/li&gt;&lt;/ul&gt;" style="ellipse;whiteSpace=wrap;html=1;fillColor=#d5e8d4;strokeColor=#82b366;" vertex="1" parent="1">
          <mxGeometry x="3520" y="1280" width="440" height="293" as="geometry" />
        </mxCell>
        <mxCell id="zDroeXgStFkQvejHrbNX-190" value="&lt;b&gt;Player Spawner&lt;/b&gt;&lt;div&gt;&lt;b&gt;&amp;nbsp;(&lt;/b&gt;&lt;span style=&quot;background-color: transparent; color: light-dark(rgb(0, 0, 0), rgb(255, 255, 255));&quot;&gt;Watches for new players joining,&amp;nbsp;&lt;/span&gt;&lt;strong style=&quot;background-color: transparent; color: light-dark(rgb(0, 0, 0), rgb(255, 255, 255));&quot; data-end=&quot;561&quot; data-start=&quot;535&quot;&gt;Spawns a player prefab&lt;/strong&gt;&lt;span style=&quot;background-color: transparent; color: light-dark(rgb(0, 0, 0), rgb(255, 255, 255));&quot;&gt; (like a kart or cube) when someone connects,&amp;nbsp;&lt;/span&gt;&lt;strong style=&quot;background-color: transparent; color: light-dark(rgb(0, 0, 0), rgb(255, 255, 255));&quot; data-end=&quot;621&quot; data-start=&quot;609&quot;&gt;Despawns&lt;/strong&gt;&lt;span style=&quot;background-color: transparent; color: light-dark(rgb(0, 0, 0), rgb(255, 255, 255));&quot;&gt; it when they leave)&lt;/span&gt;&lt;div&gt;&lt;ul data-end=&quot;1324&quot; data-start=&quot;809&quot;&gt;&lt;li class=&quot;&quot; data-end=&quot;918&quot; data-start=&quot;809&quot;&gt;&lt;p class=&quot;&quot; data-end=&quot;918&quot; data-start=&quot;811&quot;&gt;&lt;strong data-end=&quot;833&quot; data-start=&quot;811&quot;&gt;&lt;code data-end=&quot;831&quot; data-start=&quot;813&quot;&gt;OnNetworkSpawn()&lt;/code&gt;&lt;/strong&gt;: Called once this spawner is active on the network. Used to hook up event listeners.&lt;/p&gt;&lt;/li&gt;&lt;li class=&quot;&quot; data-end=&quot;1014&quot; data-start=&quot;919&quot;&gt;&lt;p class=&quot;&quot; data-end=&quot;1014&quot; data-start=&quot;921&quot;&gt;&lt;strong data-end=&quot;968&quot; data-start=&quot;921&quot;&gt;&lt;code data-end=&quot;966&quot; data-start=&quot;923&quot;&gt;OnClientConnectedCallback(ulong clientId)&lt;/code&gt;&lt;/strong&gt;: When a player joins, trigger a player spawn.&lt;/p&gt;&lt;/li&gt;&lt;li class=&quot;&quot; data-end=&quot;1118&quot; data-start=&quot;1015&quot;&gt;&lt;p class=&quot;&quot; data-end=&quot;1118&quot; data-start=&quot;1017&quot;&gt;&lt;strong data-end=&quot;1065&quot; data-start=&quot;1017&quot;&gt;&lt;code data-end=&quot;1063&quot; data-start=&quot;1019&quot;&gt;OnClientDisconnectCallback(ulong clientId)&lt;/code&gt;&lt;/strong&gt;: When a player leaves, clean up their player object.&lt;/p&gt;&lt;/li&gt;&lt;li class=&quot;&quot; data-end=&quot;1230&quot; data-start=&quot;1119&quot;&gt;&lt;p class=&quot;&quot; data-end=&quot;1230&quot; data-start=&quot;1121&quot;&gt;&lt;strong data-end=&quot;1154&quot; data-start=&quot;1121&quot;&gt;&lt;code data-end=&quot;1152&quot; data-start=&quot;1123&quot;&gt;SpawnPlayer(ulong clientId)&lt;/code&gt;&lt;/strong&gt;: Instantiates the kart prefab for the joining player and assigns ownership.&lt;/p&gt;&lt;/li&gt;&lt;li class=&quot;&quot; data-end=&quot;1324&quot; data-start=&quot;1231&quot;&gt;&lt;p class=&quot;&quot; data-end=&quot;1324&quot; data-start=&quot;1233&quot;&gt;&lt;strong data-end=&quot;1268&quot; data-start=&quot;1233&quot;&gt;&lt;code data-end=&quot;1266&quot; data-start=&quot;1235&quot;&gt;DespawnPlayer(ulong clientId)&lt;/code&gt;&lt;/strong&gt;: Destroys the kart object linked to the leaving player.&lt;/p&gt;&lt;br&gt;&lt;/li&gt;&lt;br&gt;&lt;/ul&gt;&lt;/div&gt;&lt;/div&gt;" style="ellipse;whiteSpace=wrap;html=1;fillColor=#d5e8d4;strokeColor=#82b366;" vertex="1" parent="1">
          <mxGeometry x="2660" y="1393" width="610" height="600" as="geometry" />
        </mxCell>
        <mxCell id="zDroeXgStFkQvejHrbNX-191" value="&lt;b&gt;Player Network&lt;/b&gt;&lt;div&gt;&lt;span style=&quot;background-color: transparent; color: light-dark(rgb(0, 0, 0), rgb(255, 255, 255));&quot;&gt;&lt;b&gt;(&lt;/b&gt;A small script attached to the PlayerPrefab,&lt;/span&gt;&lt;span style=&quot;background-color: transparent; color: light-dark(rgb(0, 0, 0), rgb(255, 255, 255));&quot;&gt;Confirms ownership (i.e., &quot;this is my player&quot; vs &quot;this is another player&quot;),&lt;/span&gt;&lt;span style=&quot;background-color: transparent; color: light-dark(rgb(0, 0, 0), rgb(255, 255, 255));&quot;&gt;Can be empty at first — just useful if you want to add stuff later.)&lt;/span&gt;&lt;li class=&quot;&quot; data-end=&quot;1357&quot; data-start=&quot;1288&quot;&gt;&lt;p class=&quot;&quot; data-end=&quot;1357&quot; data-start=&quot;1290&quot;&gt;&lt;strong style=&quot;background-color: transparent; color: light-dark(rgb(0, 0, 0), rgb(255, 255, 255));&quot; data-end=&quot;1415&quot; data-start=&quot;1393&quot;&gt;&lt;code data-end=&quot;1413&quot; data-start=&quot;1395&quot;&gt;OnNetworkSpawn()&lt;/code&gt;&lt;/strong&gt;&lt;span style=&quot;background-color: transparent; color: light-dark(rgb(0, 0, 0), rgb(255, 255, 255));&quot;&gt;: Runs when this player object spawns on the network. Used to activate input if local owner.&lt;/span&gt;&lt;/p&gt;&lt;/li&gt;&lt;div&gt;&lt;li class=&quot;&quot; data-end=&quot;1598&quot; data-start=&quot;1508&quot;&gt;&lt;br&gt;&lt;p class=&quot;&quot; data-end=&quot;1598&quot; data-start=&quot;1510&quot;&gt;&lt;strong data-end=&quot;1524&quot; data-start=&quot;1510&quot;&gt;&lt;code data-end=&quot;1522&quot; data-start=&quot;1512&quot;&gt;Update()&lt;/code&gt;&lt;/strong&gt;: Every frame, handle input or sync movement data, depending on ownership.&lt;/p&gt;&lt;/li&gt;&lt;li class=&quot;&quot; data-end=&quot;1716&quot; data-start=&quot;1599&quot;&gt;&lt;br&gt;&lt;p class=&quot;&quot; data-end=&quot;1716&quot; data-start=&quot;1601&quot;&gt;&lt;strong data-end=&quot;1635&quot; data-start=&quot;1601&quot;&gt;&lt;code data-end=&quot;1633&quot; data-start=&quot;1603&quot;&gt;MoveServerRpc(Vector3 input)&lt;/code&gt;&lt;/strong&gt;: Remote Procedure Call — sends input from client to server to validate movement.&lt;/p&gt;&lt;/li&gt;&lt;li class=&quot;&quot; data-end=&quot;1822&quot; data-start=&quot;1717&quot;&gt;&lt;br&gt;&lt;p class=&quot;&quot; data-end=&quot;1822&quot; data-start=&quot;1719&quot;&gt;&lt;strong data-end=&quot;1758&quot; data-start=&quot;1719&quot;&gt;&lt;code data-end=&quot;1756&quot; data-start=&quot;1721&quot;&gt;NetworkVariable&amp;lt;Vector3&amp;gt; Position&lt;/code&gt;&lt;/strong&gt;: Automatically replicates the player&#39;s position to all clients.&lt;/p&gt;&lt;/li&gt;&lt;li class=&quot;&quot; data-end=&quot;1931&quot; data-start=&quot;1823&quot;&gt;&lt;p class=&quot;&quot; data-end=&quot;1931&quot; data-start=&quot;1825&quot;&gt;&lt;strong data-end=&quot;1867&quot; data-start=&quot;1825&quot;&gt;&lt;code data-end=&quot;1865&quot; data-start=&quot;1827&quot;&gt;NetworkVariable&amp;lt;Quaternion&amp;gt; Rotation&lt;/code&gt;&lt;/strong&gt;: Automatically replicates the player&#39;s rotation to all clients.&lt;/p&gt;&lt;/li&gt;&lt;/div&gt;&lt;/div&gt;" style="ellipse;whiteSpace=wrap;html=1;fillColor=#ffe6cc;strokeColor=#d79b00;" vertex="1" parent="1">
          <mxGeometry x="3190" y="1693" width="920" height="640" as="geometry" />
        </mxCell>
        <mxCell id="zDroeXgStFkQvejHrbNX-192" style="edgeStyle=orthogonalEdgeStyle;rounded=0;orthogonalLoop=1;jettySize=auto;html=1;exitX=0.5;exitY=1;exitDx=0;exitDy=0;entryX=0.324;entryY=0.051;entryDx=0;entryDy=0;entryPerimeter=0;" edge="1" parent="1" source="zDroeXgStFkQvejHrbNX-188" target="zDroeXgStFkQvejHrbNX-191">
          <mxGeometry relative="1" as="geometry" />
        </mxCell>
        <mxCell id="zDroeXgStFkQvejHrbNX-193" value="Green = necessary&lt;div&gt;orange = optional&amp;nbsp;&lt;/div&gt;" style="rounded=1;whiteSpace=wrap;html=1;" vertex="1" parent="1">
          <mxGeometry x="3680" y="1007.89" width="120" height="140" as="geometry" />
        </mxCell>
        <mxCell id="zDroeXgStFkQvejHrbNX-194" style="edgeStyle=orthogonalEdgeStyle;rounded=0;orthogonalLoop=1;jettySize=auto;html=1;exitX=0;exitY=1;exitDx=0;exitDy=0;entryX=0.99;entryY=0.369;entryDx=0;entryDy=0;entryPerimeter=0;" edge="1" parent="1" source="zDroeXgStFkQvejHrbNX-189" target="zDroeXgStFkQvejHrbNX-190">
          <mxGeometry relative="1" as="geometry" />
        </mxCell>
        <mxCell id="zDroeXgStFkQvejHrbNX-195" value="ingame obstacle information" style="text;html=1;align=left;verticalAlign=middle;whiteSpace=wrap;rounded=0;" vertex="1" parent="1">
          <mxGeometry x="905" y="679.89" width="176" height="30" as="geometry" />
        </mxCell>
        <mxCell id="zDroeXgStFkQvejHrbNX-227" value="PlayerAccount" style="swimlane;fontStyle=1;align=center;verticalAlign=top;childLayout=stackLayout;horizontal=1;startSize=26;horizontalStack=0;resizeParent=1;resizeParentMax=0;resizeLast=0;collapsible=1;marginBottom=0;whiteSpace=wrap;html=1;" vertex="1" parent="1">
          <mxGeometry x="1500" y="90" width="240" height="160" as="geometry" />
        </mxCell>
        <mxCell id="zDroeXgStFkQvejHrbNX-228" value="+username: String&#xa;+currencyManager: CurrencyManager&#xa;+statsManager: StatsManager" style="text;strokeColor=none;fillColor=none;align=left;verticalAlign=top;spacingLeft=4;spacingRight=4;overflow=hidden;rotatable=0;points=[[0,0.5],[1,0.5]];portConstraint=eastwest;whiteSpace=wrap;html=1;" vertex="1" parent="zDroeXgStFkQvejHrbNX-227">
          <mxGeometry y="26" width="240" height="54" as="geometry" />
        </mxCell>
        <mxCell id="zDroeXgStFkQvejHrbNX-229" value="" style="line;strokeWidth=1;fillColor=none;align=left;verticalAlign=middle;spacingTop=-1;spacingLeft=3;spacingRight=3;rotatable=0;labelPosition=right;points=[];portConstraint=eastwest;strokeColor=inherit;" vertex="1" parent="zDroeXgStFkQvejHrbNX-227">
          <mxGeometry y="80" width="240" height="8" as="geometry" />
        </mxCell>
        <mxCell id="zDroeXgStFkQvejHrbNX-230" value="+Login()&#xa;+Logout()&#xa;+LoadProfile()" style="text;strokeColor=none;fillColor=none;align=left;verticalAlign=top;spacingLeft=4;spacingRight=4;overflow=hidden;rotatable=0;points=[[0,0.5],[1,0.5]];portConstraint=eastwest;whiteSpace=wrap;html=1;" vertex="1" parent="zDroeXgStFkQvejHrbNX-227">
          <mxGeometry y="88" width="240" height="72" as="geometry" />
        </mxCell>
        <mxCell id="zDroeXgStFkQvejHrbNX-231" value="RaceManager" style="swimlane;fontStyle=1;align=center;verticalAlign=top;childLayout=stackLayout;horizontal=1;startSize=26;horizontalStack=0;resizeParent=1;resizeParentMax=0;resizeLast=0;collapsible=1;marginBottom=0;whiteSpace=wrap;html=1;" vertex="1" parent="1">
          <mxGeometry x="2040" y="90" width="240" height="160" as="geometry" />
        </mxCell>
        <mxCell id="zDroeXgStFkQvejHrbNX-232" value="+currentStandings: ArrayList&lt;username&gt;&#xa;+placements: ArrayList&lt;username&gt;" style="text;strokeColor=none;fillColor=none;align=left;verticalAlign=top;spacingLeft=4;spacingRight=4;overflow=hidden;rotatable=0;points=[[0,0.5],[1,0.5]];portConstraint=eastwest;whiteSpace=wrap;html=1;" vertex="1" parent="zDroeXgStFkQvejHrbNX-231">
          <mxGeometry y="26" width="240" height="44" as="geometry" />
        </mxCell>
        <mxCell id="zDroeXgStFkQvejHrbNX-233" value="" style="line;strokeWidth=1;fillColor=none;align=left;verticalAlign=middle;spacingTop=-1;spacingLeft=3;spacingRight=3;rotatable=0;labelPosition=right;points=[];portConstraint=eastwest;strokeColor=inherit;" vertex="1" parent="zDroeXgStFkQvejHrbNX-231">
          <mxGeometry y="70" width="240" height="8" as="geometry" />
        </mxCell>
        <mxCell id="zDroeXgStFkQvejHrbNX-234" value="+StartRace()&#xa;+EndRace()&#xa;+CalculateStandings()&#xa;+AwardCurrency()" style="text;strokeColor=none;fillColor=none;align=left;verticalAlign=top;spacingLeft=4;spacingRight=4;overflow=hidden;rotatable=0;points=[[0,0.5],[1,0.5]];portConstraint=eastwest;whiteSpace=wrap;html=1;" vertex="1" parent="zDroeXgStFkQvejHrbNX-231">
          <mxGeometry y="78" width="240" height="82" as="geometry" />
        </mxCell>
        <mxCell id="zDroeXgStFkQvejHrbNX-235" value="CurrencyManager" style="swimlane;fontStyle=1;align=center;verticalAlign=top;childLayout=stackLayout;horizontal=1;startSize=26;horizontalStack=0;resizeParent=1;resizeParentMax=0;resizeLast=0;collapsible=1;marginBottom=0;whiteSpace=wrap;html=1;" vertex="1" parent="1">
          <mxGeometry x="1640" y="370" width="240" height="160" as="geometry" />
        </mxCell>
        <mxCell id="zDroeXgStFkQvejHrbNX-236" value="+balance: int" style="text;strokeColor=none;fillColor=none;align=left;verticalAlign=top;spacingLeft=4;spacingRight=4;overflow=hidden;rotatable=0;points=[[0,0.5],[1,0.5]];portConstraint=eastwest;whiteSpace=wrap;html=1;" vertex="1" parent="zDroeXgStFkQvejHrbNX-235">
          <mxGeometry y="26" width="240" height="24" as="geometry" />
        </mxCell>
        <mxCell id="zDroeXgStFkQvejHrbNX-237" value="" style="line;strokeWidth=1;fillColor=none;align=left;verticalAlign=middle;spacingTop=-1;spacingLeft=3;spacingRight=3;rotatable=0;labelPosition=right;points=[];portConstraint=eastwest;strokeColor=inherit;" vertex="1" parent="zDroeXgStFkQvejHrbNX-235">
          <mxGeometry y="50" width="240" height="8" as="geometry" />
        </mxCell>
        <mxCell id="zDroeXgStFkQvejHrbNX-238" value="+AddCurrency(amount: int)&#xa;+SpendCurrency(cost: int)&#xa;+GetBalance() : int" style="text;strokeColor=none;fillColor=none;align=left;verticalAlign=top;spacingLeft=4;spacingRight=4;overflow=hidden;rotatable=0;points=[[0,0.5],[1,0.5]];portConstraint=eastwest;whiteSpace=wrap;html=1;" vertex="1" parent="zDroeXgStFkQvejHrbNX-235">
          <mxGeometry y="58" width="240" height="102" as="geometry" />
        </mxCell>
        <mxCell id="zDroeXgStFkQvejHrbNX-239" value="StatsManager" style="swimlane;fontStyle=1;align=center;verticalAlign=top;childLayout=stackLayout;horizontal=1;startSize=26;horizontalStack=0;resizeParent=1;resizeParentMax=0;resizeLast=0;collapsible=1;marginBottom=0;whiteSpace=wrap;html=1;" vertex="1" parent="1">
          <mxGeometry x="1940" y="370" width="240" height="160" as="geometry" />
        </mxCell>
        <mxCell id="zDroeXgStFkQvejHrbNX-240" value="+lapTimes: ArrayList&lt;double&gt;&#xa;+bestLap: double&#xa;+averageTime: double" style="text;strokeColor=none;fillColor=none;align=left;verticalAlign=top;spacingLeft=4;spacingRight=4;overflow=hidden;rotatable=0;points=[[0,0.5],[1,0.5]];portConstraint=eastwest;whiteSpace=wrap;html=1;" vertex="1" parent="zDroeXgStFkQvejHrbNX-239">
          <mxGeometry y="26" width="240" height="54" as="geometry" />
        </mxCell>
        <mxCell id="zDroeXgStFkQvejHrbNX-241" value="" style="line;strokeWidth=1;fillColor=none;align=left;verticalAlign=middle;spacingTop=-1;spacingLeft=3;spacingRight=3;rotatable=0;labelPosition=right;points=[];portConstraint=eastwest;strokeColor=inherit;" vertex="1" parent="zDroeXgStFkQvejHrbNX-239">
          <mxGeometry y="80" width="240" height="8" as="geometry" />
        </mxCell>
        <mxCell id="zDroeXgStFkQvejHrbNX-242" value="+SaveStats()&#xa;+LoadStats()&#xa;+UpdateLap(mapID: String, time: double)" style="text;strokeColor=none;fillColor=none;align=left;verticalAlign=top;spacingLeft=4;spacingRight=4;overflow=hidden;rotatable=0;points=[[0,0.5],[1,0.5]];portConstraint=eastwest;whiteSpace=wrap;html=1;" vertex="1" parent="zDroeXgStFkQvejHrbNX-239">
          <mxGeometry y="88" width="240" height="72" as="geometry" />
        </mxCell>
        <mxCell id="zDroeXgStFkQvejHrbNX-243" value="StandingsManager" style="swimlane;fontStyle=1;align=center;verticalAlign=top;childLayout=stackLayout;horizontal=1;startSize=26;horizontalStack=0;resizeParent=1;resizeParentMax=0;resizeLast=0;collapsible=1;marginBottom=0;whiteSpace=wrap;html=1;" vertex="1" parent="1">
          <mxGeometry x="2240" y="370" width="280" height="120" as="geometry" />
        </mxCell>
        <mxCell id="zDroeXgStFkQvejHrbNX-244" value="" style="line;strokeWidth=1;fillColor=none;align=left;verticalAlign=middle;spacingTop=-1;spacingLeft=3;spacingRight=3;rotatable=0;labelPosition=right;points=[];portConstraint=eastwest;strokeColor=inherit;" vertex="1" parent="zDroeXgStFkQvejHrbNX-243">
          <mxGeometry y="26" width="280" height="8" as="geometry" />
        </mxCell>
        <mxCell id="zDroeXgStFkQvejHrbNX-245" value="+UpdateStandings(newOrder: ArrayList&lt;username&gt;)&#xa;+GetStandings()" style="text;strokeColor=none;fillColor=none;align=left;verticalAlign=top;spacingLeft=4;spacingRight=4;overflow=hidden;rotatable=0;points=[[0,0.5],[1,0.5]];portConstraint=eastwest;whiteSpace=wrap;html=1;" vertex="1" parent="zDroeXgStFkQvejHrbNX-243">
          <mxGeometry y="34" width="280" height="86" as="geometry" />
        </mxCell>
        <mxCell id="zDroeXgStFkQvejHrbNX-246" value="FirebaseService" style="swimlane;fontStyle=1;align=center;verticalAlign=top;childLayout=stackLayout;horizontal=1;startSize=26;horizontalStack=0;resizeParent=1;resizeParentMax=0;resizeLast=0;collapsible=1;marginBottom=0;whiteSpace=wrap;html=1;" vertex="1" parent="1">
          <mxGeometry x="1890" y="650" width="240" height="160" as="geometry" />
        </mxCell>
        <mxCell id="zDroeXgStFkQvejHrbNX-247" value="+auth: FirebaseAuth&#xa;+database: FirebaseDatabase" style="text;strokeColor=none;fillColor=none;align=left;verticalAlign=top;spacingLeft=4;spacingRight=4;overflow=hidden;rotatable=0;points=[[0,0.5],[1,0.5]];portConstraint=eastwest;whiteSpace=wrap;html=1;" vertex="1" parent="zDroeXgStFkQvejHrbNX-246">
          <mxGeometry y="26" width="240" height="44" as="geometry" />
        </mxCell>
        <mxCell id="zDroeXgStFkQvejHrbNX-248" value="" style="line;strokeWidth=1;fillColor=none;align=left;verticalAlign=middle;spacingTop=-1;spacingLeft=3;spacingRight=3;rotatable=0;labelPosition=right;points=[];portConstraint=eastwest;strokeColor=inherit;" vertex="1" parent="zDroeXgStFkQvejHrbNX-246">
          <mxGeometry y="70" width="240" height="8" as="geometry" />
        </mxCell>
        <mxCell id="zDroeXgStFkQvejHrbNX-249" value="+Login(email: String, pass: String)&#xa;+Logout()&#xa;+SaveData(path: String, data)&#xa;+LoadData(path: String)" style="text;strokeColor=none;fillColor=none;align=left;verticalAlign=top;spacingLeft=4;spacingRight=4;overflow=hidden;rotatable=0;points=[[0,0.5],[1,0.5]];portConstraint=eastwest;whiteSpace=wrap;html=1;" vertex="1" parent="zDroeXgStFkQvejHrbNX-246">
          <mxGeometry y="78" width="240" height="82" as="geometry" />
        </mxCell>
        <mxCell id="zDroeXgStFkQvejHrbNX-250" value="Contains" style="endArrow=block;endFill=0;endSize=12;html=1;rounded=0;exitX=0.5;exitY=1;exitDx=0;exitDy=0;entryX=0.5;entryY=0;entryDx=0;entryDy=0;" edge="1" parent="1" source="zDroeXgStFkQvejHrbNX-227" target="zDroeXgStFkQvejHrbNX-235">
          <mxGeometry width="160" relative="1" as="geometry">
            <mxPoint x="1620" y="290" as="sourcePoint" />
            <mxPoint x="1780" y="290" as="targetPoint" />
          </mxGeometry>
        </mxCell>
        <mxCell id="zDroeXgStFkQvejHrbNX-251" value="Awards" style="endArrow=block;endFill=0;endSize=12;html=1;rounded=0;exitX=0.25;exitY=1;exitDx=0;exitDy=0;entryX=0.75;entryY=0;entryDx=0;entryDy=0;" edge="1" parent="1" source="zDroeXgStFkQvejHrbNX-231" target="zDroeXgStFkQvejHrbNX-235">
          <mxGeometry width="160" relative="1" as="geometry">
            <mxPoint x="2110" y="290" as="sourcePoint" />
            <mxPoint x="1820" y="330" as="targetPoint" />
          </mxGeometry>
        </mxCell>
        <mxCell id="zDroeXgStFkQvejHrbNX-252" value="Contains" style="endArrow=block;endFill=0;endSize=12;html=1;rounded=0;exitX=0.5;exitY=1;exitDx=0;exitDy=0;entryX=0.5;entryY=0;entryDx=0;entryDy=0;" edge="1" parent="1" source="zDroeXgStFkQvejHrbNX-231" target="zDroeXgStFkQvejHrbNX-239">
          <mxGeometry width="160" relative="1" as="geometry">
            <mxPoint x="2160" y="270" as="sourcePoint" />
            <mxPoint x="2060" y="330" as="targetPoint" />
          </mxGeometry>
        </mxCell>
        <mxCell id="zDroeXgStFkQvejHrbNX-253" value="Updates" style="endArrow=block;endFill=0;endSize=12;html=1;rounded=0;exitX=0.75;exitY=1;exitDx=0;exitDy=0;entryX=0.5;entryY=0;entryDx=0;entryDy=0;" edge="1" parent="1" source="zDroeXgStFkQvejHrbNX-231" target="zDroeXgStFkQvejHrbNX-243">
          <mxGeometry width="160" relative="1" as="geometry">
            <mxPoint x="2160" y="270" as="sourcePoint" />
            <mxPoint x="2280" y="330" as="targetPoint" />
          </mxGeometry>
        </mxCell>
        <mxCell id="zDroeXgStFkQvejHrbNX-254" value="Interacts" style="endArrow=block;endFill=0;endSize=12;html=1;rounded=0;exitX=0.25;exitY=1;exitDx=0;exitDy=0;entryX=0.25;entryY=0;entryDx=0;entryDy=0;" edge="1" parent="1" source="zDroeXgStFkQvejHrbNX-227" target="zDroeXgStFkQvejHrbNX-246">
          <mxGeometry width="160" relative="1" as="geometry">
            <mxPoint x="1560" y="290" as="sourcePoint" />
            <mxPoint x="1940" y="610" as="targetPoint" />
            <Array as="points">
              <mxPoint x="1560" y="570" />
              <mxPoint x="1950" y="570" />
            </Array>
          </mxGeometry>
        </mxCell>
        <mxCell id="zDroeXgStFkQvejHrbNX-255" value="Updates" style="endArrow=block;endFill=0;endSize=12;html=1;rounded=0;exitX=0.5;exitY=1;exitDx=0;exitDy=0;entryX=0.25;entryY=0;entryDx=0;entryDy=0;" edge="1" parent="1" source="zDroeXgStFkQvejHrbNX-235" target="zDroeXgStFkQvejHrbNX-246">
          <mxGeometry width="160" relative="1" as="geometry">
            <mxPoint x="1760" y="550" as="sourcePoint" />
            <mxPoint x="1950" y="630" as="targetPoint" />
            <Array as="points">
              <mxPoint x="1760" y="570" />
              <mxPoint x="1950" y="570" />
            </Array>
          </mxGeometry>
        </mxCell>
        <mxCell id="zDroeXgStFkQvejHrbNX-256" value="Saves/Loads" style="endArrow=block;endFill=0;endSize=12;html=1;rounded=0;exitX=0.5;exitY=1;exitDx=0;exitDy=0;entryX=0.5;entryY=0;entryDx=0;entryDy=0;" edge="1" parent="1" source="zDroeXgStFkQvejHrbNX-239" target="zDroeXgStFkQvejHrbNX-246">
          <mxGeometry width="160" relative="1" as="geometry">
            <mxPoint x="2060" y="550" as="sourcePoint" />
            <mxPoint x="2010" y="630" as="targetPoint" />
          </mxGeometry>
        </mxCell>
        <mxCell id="zDroeXgStFkQvejHrbNX-257" value="Updates" style="endArrow=block;endFill=0;endSize=12;html=1;rounded=0;exitX=0.5;exitY=1;exitDx=0;exitDy=0;entryX=0.75;entryY=0;entryDx=0;entryDy=0;" edge="1" parent="1" source="zDroeXgStFkQvejHrbNX-243" target="zDroeXgStFkQvejHrbNX-246">
          <mxGeometry width="160" relative="1" as="geometry">
            <mxPoint x="2380" y="550" as="sourcePoint" />
            <mxPoint x="2070" y="630" as="targetPoint" />
            <Array as="points">
              <mxPoint x="2380" y="570" />
              <mxPoint x="2070" y="570" />
            </Array>
          </mxGeometry>
        </mxCell>
      </root>
    </mxGraphModel>
  </diagram>
</mxfile>
